<?xml version="1.0" encoding="UTF-8" standalone="no"?>
<!-- Created with Inkscape (http://www.inkscape.org/) -->

<svg
   xmlns:dc="http://purl.org/dc/elements/1.1/"
   xmlns:cc="http://creativecommons.org/ns#"
   xmlns:rdf="http://www.w3.org/1999/02/22-rdf-syntax-ns#"
   xmlns:svg="http://www.w3.org/2000/svg"
   xmlns="http://www.w3.org/2000/svg"
   xmlns:sodipodi="http://sodipodi.sourceforge.net/DTD/sodipodi-0.dtd"
   xmlns:inkscape="http://www.inkscape.org/namespaces/inkscape"
   width="64px"
   height="64px"
   id="svg2826"
   version="1.1"
   inkscape:version="0.47 r22583"
   sodipodi:docname="New document 3">
  <defs
     id="defs2828">
    <inkscape:perspective
       sodipodi:type="inkscape:persp3d"
       inkscape:vp_x="0 : 32 : 1"
       inkscape:vp_y="0 : 1000 : 0"
       inkscape:vp_z="64 : 32 : 1"
       inkscape:persp3d-origin="32 : 21.333333 : 1"
       id="perspective2834" />
  </defs>
  <sodipodi:namedview
     id="base"
     pagecolor="#ffffff"
     bordercolor="#666666"
     borderopacity="1.0"
     inkscape:pageopacity="0.0"
     inkscape:pageshadow="2"
     inkscape:zoom="5.5"
     inkscape:cx="-0.54545455"
     inkscape:cy="32"
     inkscape:current-layer="layer1"
     showgrid="true"
     inkscape:document-units="px"
     inkscape:grid-bbox="true"
     inkscape:window-width="1280"
     inkscape:window-height="725"
     inkscape:window-x="0"
     inkscape:window-y="24"
     inkscape:window-maximized="1" />
  <metadata
     id="metadata2831">
    <rdf:RDF>
      <cc:Work
         rdf:about="">
        <dc:format>image/svg+xml</dc:format>
        <dc:type
           rdf:resource="http://purl.org/dc/dcmitype/StillImage" />
        <dc:title></dc:title>
      </cc:Work>
    </rdf:RDF>
  </metadata>
  <g
     id="layer1"
     inkscape:label="Layer 1"
     inkscape:groupmode="layer">
    <path
       style="fill:none;stroke:#000000;stroke-width:1px;stroke-linecap:butt;stroke-linejoin:miter;stroke-opacity:1"
       d="m 47.090909,21.636364 c -0.242424,0 -0.484848,0 -0.727273,0 -0.06061,0 -0.124322,0.01917 -0.181818,0 -0.128565,-0.04285 -0.235071,-0.138964 -0.363636,-0.181819 -0.114992,-0.03833 -0.242424,0 -0.363637,0 -0.09508,0 -0.679465,0.0239 -0.727272,0 -0.535056,-0.267528 0.282233,-0.181818 -0.545455,-0.181818 -0.18731,0 -1.219062,0.02683 -1.272727,0 -0.07666,-0.03833 -0.105157,-0.143487 -0.181818,-0.181818 -0.02483,-0.01242 -1.066078,-0.01242 -1.090909,0 -0.07666,0.03833 -0.105157,0.143488 -0.181819,0.181818 -0.05533,0.02767 -0.463571,0 -0.545454,0 -0.363636,0 -0.727273,0 -1.090909,0 -0.08188,0 -0.490121,-0.02767 -0.545455,0 -0.449346,0.224673 0.06276,0.181818 -0.363636,0.181818 -0.08573,0 -0.900851,0.0082 -0.909091,0 -0.04286,-0.04285 0.04286,-0.138963 0,-0.181818 -0.04286,-0.04285 -0.121212,0 -0.181818,0 -0.128873,0 -1.0439,-0.0235 -1.090909,0 -0.07666,0.03833 -0.105157,0.143488 -0.181818,0.181818 -0.125588,0.06279 -0.84527,-0.06382 -0.909091,0 -0.04286,0.04285 0.04286,0.138964 0,0.181819 -0.08571,0.08571 -0.255221,-0.05421 -0.363637,0 -0.07666,0.03833 -0.105157,0.143487 -0.181818,0.181818 -0.05421,0.0271 -0.12761,-0.0271 -0.181818,0 -0.07666,0.03833 -0.121212,0.121212 -0.181818,0.181818 -0.06061,0.06061 -0.143488,0.105157 -0.181818,0.181818 -0.0271,0.05421 0.04286,0.138963 0,0.181818 -0.04285,0.04285 -0.138964,-0.04285 -0.181819,0 -0.04286,0.04285 0.0271,0.127611 0,0.181819 -0.03833,0.07666 -0.143487,0.105156 -0.181818,0.181818 -0.0271,0.05421 0.04286,0.138963 0,0.181818 -0.04286,0.04285 -0.138963,-0.04285 -0.181818,0 -0.08571,0.08571 0.08571,0.277926 0,0.363636 -0.04286,0.04285 -0.138963,-0.04285 -0.181818,0 -0.09091,0.09091 0.09091,0.454546 0,0.545455 -0.04286,0.04285 -0.138963,-0.04285 -0.181818,0 -0.08571,0.08571 0.08571,0.277926 0,0.363636 -0.04286,0.04285 -0.138964,-0.04285 -0.181819,0 -0.09091,0.09091 0.09091,0.454546 0,0.545455 -0.04286,0.04285 -0.138963,-0.04285 -0.181818,0 -0.04286,0.04285 0.0271,0.12761 0,0.181818 -0.03833,0.07666 -0.143487,0.105157 -0.181818,0.181818 -0.04849,0.09697 0.04848,0.266667 0,0.363636 -0.03833,0.07666 -0.143487,0.105157 -0.181818,0.181819 -0.0271,0.05421 0.0271,0.12761 0,0.181818 -0.03833,0.07666 -0.143488,0.105157 -0.181818,0.181818 -0.03604,0.07209 0.03717,0.508284 0,0.545455 -0.04285,0.04285 -0.138963,-0.04285 -0.181818,0 -0.04375,0.04375 0.04375,0.683521 0,0.727272 -0.04285,0.04285 -0.138964,-0.04285 -0.181819,0 -0.04286,0.04285 0.04286,0.138963 0,0.181818 -0.04286,0.04285 -0.138963,-0.04285 -0.181818,0 -0.08571,0.08571 0.05421,0.255221 0,0.363637 C 32.143488,27.894843 32.038331,27.923339 32,28 c -0.0271,0.05421 0.04286,0.138963 0,0.181818 -0.04285,0.04285 -0.138963,-0.04285 -0.181818,0 -0.08571,0.08571 0.08571,0.277927 0,0.363637 -0.04285,0.04285 -0.138963,-0.04285 -0.181818,0 -0.242425,0.242424 0.30303,0.181818 -0.181819,0.181818 l -0.90909,0.727272 C 30.394749,29.796513 30.166984,29.484214 30,29.818182 29.9729,29.872392 30.04285,29.957145 30,30 c -0.08571,0.08571 -0.255221,-0.05421 -0.363636,0 -0.153323,0.07666 -0.210314,0.286975 -0.363637,0.363636 -0.05421,0.0271 -0.12761,-0.0271 -0.181818,0 -0.07666,0.03833 -0.105157,0.143488 -0.181818,0.181819 -0.05421,0.0271 -0.121212,0 -0.181818,0 -0.121212,0.06061 -0.250878,0.106645 -0.363637,0.181818 -0.14263,0.09509 -0.210313,0.286975 -0.363636,0.363636 -0.05421,0.0271 -0.124322,-0.01917 -0.181818,0 -0.128565,0.04285 -0.235072,0.138963 -0.363637,0.181818 -0.0575,0.01917 -0.12761,-0.0271 -0.181818,0 -0.07666,0.03833 -0.105157,0.143488 -0.181818,0.181818 -0.05421,0.0271 -0.12761,-0.0271 -0.181818,0 -0.07666,0.03833 -0.105157,0.143488 -0.181818,0.181819 -0.17142,0.08571 -0.381114,0.08321 -0.545455,0.181818 -0.146991,0.08819 -0.221006,0.26855 -0.363636,0.363636 -0.05043,0.03362 -0.121212,0 -0.181818,0 -0.121212,0.06061 -0.250878,0.106646 -0.363637,0.181818 -0.14263,0.09509 -0.221006,0.26855 -0.363636,0.363637 -0.112759,0.07517 -0.242424,0.121212 -0.363636,0.181818 -0.121213,0.06061 -0.235072,0.138963 -0.363637,0.181818 -0.0575,0.01916 -0.138963,-0.04286 -0.181818,0 -0.04285,0.04285 0.04285,0.138963 0,0.181818 -0.709588,0.709588 -0.09764,-0.04209 -0.545455,0.181818 -0.244898,0.122449 -0.118738,0.241188 -0.363636,0.363637 -0.05421,0.0271 -0.12761,-0.0271 -0.181818,0 -0.07666,0.03833 -0.110503,0.134275 -0.181818,0.181818 -0.115868,0.07724 -0.972974,0.515971 -1.090909,0.545455 -0.117593,0.0294 -0.246044,-0.0294 -0.363637,0 -0.87799,0.219497 0.009,0.0864 -0.545454,0.363636 -0.05421,0.0271 -0.121212,0 -0.181818,0 -0.06061,0.06061 -0.105157,0.143487 -0.181819,0.181818 -0.05421,0.0271 -0.12761,-0.0271 -0.181818,0 -0.07666,0.03833 -0.100506,0.154714 -0.181818,0.181818 -0.114992,0.03833 -0.248644,-0.03833 -0.363636,0 -0.08131,0.0271 -0.110504,0.134275 -0.181819,0.181818 -0.112758,0.07517 -0.235071,0.138964 -0.363636,0.181819 -0.114992,0.03833 -0.255221,-0.05421 -0.363636,0 -0.07666,0.03833 -0.105157,0.143487 -0.181818,0.181818 -0.05421,0.0271 -0.127611,-0.0271 -0.181819,0 -0.07666,0.03833 -0.105157,0.143487 -0.181818,0.181818 -0.145454,0.07273 -0.4,-0.07273 -0.545454,0 -0.05421,0.0271 0.04285,0.138963 0,0.181818 -0.08571,0.08571 -0.248645,-0.03833 -0.363637,0 -0.128565,0.04286 -0.235071,0.138963 -0.363636,0.181818 -0.0575,0.01917 -0.127611,-0.0271 -0.181818,0 -0.07666,0.03833 -0.105157,0.143488 -0.181818,0.181819 -0.05421,0.0271 -0.127611,-0.0271 -0.181819,0 -0.07666,0.03833 -0.105157,0.143487 -0.181818,0.181818 -0.05421,0.0271 -0.12761,-0.0271 -0.181818,0 -0.07666,0.03833 -0.105157,0.143487 -0.181818,0.181818 -0.07209,0.03605 -0.508284,-0.03717 -0.545455,0 -0.04285,0.04286 0.04285,0.138963 0,0.181818 -0.04285,0.04285 -0.12761,-0.0271 -0.181818,0 -0.603015,0.603015 0.17142,-0.08571 -0.363636,0.181818 -0.07666,0.03833 -0.105157,0.143488 -0.181818,0.181818 -0.108416,0.05421 -0.277927,-0.08571 -0.363637,0 -0.04285,0.04285 0.04285,0.138964 0,0.181819 -0.08571,0.08571 -0.277926,-0.08571 -0.363636,0 -0.04285,0.04286 0.04285,0.138963 0,0.181818 C 13.638822,37.997541 13.454545,37.445622 13.454545,38 l -0.181818,0.909091 c -0.04848,0.09697 0.04848,0.266667 0,0.363636 -0.03833,0.07666 -0.143487,0.105157 -0.181818,0.181818 -0.03604,0.07209 0.03717,0.508285 0,0.545455 -0.04285,0.04286 -0.138963,-0.04286 -0.181818,0 -0.03717,0.03717 0.03604,0.473365 0,0.545455 -0.03833,0.07666 -0.143488,0.105156 -0.181818,0.181818 -0.06279,0.125588 0.06382,0.845269 0,0.909091 -0.04285,0.04286 -0.138963,-0.04286 -0.181818,0 -0.0563,0.0563 0.0563,0.852791 0,0.909091 -0.04286,0.04286 -0.138964,-0.04285 -0.181819,0 -0.0073,0.0073 0,0.660502 0,0.727272 0,0.303031 0,0.606061 0,0.909091 0,0.121212 0,0.242424 0,0.363637 0,0.06061 0.06061,0.181818 0,0.181818 -0.267528,0 0.421197,-0.603015 -0.181818,0"
       id="path2836" />
    <path
       style="fill:none;stroke:#000000;stroke-width:1px;stroke-linecap:butt;stroke-linejoin:miter;stroke-opacity:1"
       d="m 13.090909,45.090909 c 0.08571,-0.08571 0.277927,0.08571 0.363636,0 0.04286,-0.04286 -0.04285,-0.138963 0,-0.181818 0.08571,-0.08571 0.255221,0.05421 0.363637,0 0.07666,-0.03833 0.110503,-0.134275 0.181818,-0.181818 0.319797,-0.213198 0.539494,-0.215798 0.909091,-0.363637 0.125826,-0.05033 0.232163,-0.14895 0.363636,-0.181818 0.117593,-0.0294 0.246044,0.0294 0.363637,0 C 15.767837,44.14895 15.871435,44.042855 16,44 c 0.474124,-0.158041 0.974004,-0.226339 1.454545,-0.363636 0.368559,-0.105303 0.719048,-0.270671 1.09091,-0.363637 0.299804,-0.07495 0.609286,-0.106867 0.90909,-0.181818 0.371862,-0.09297 0.715047,-0.288464 1.09091,-0.363636 0.118858,-0.02377 0.244778,0.02377 0.363636,0 0.187931,-0.03759 0.361175,-0.129167 0.545454,-0.181818 0.461321,-0.131806 0.83679,-0.176806 1.272728,-0.363637 C 24.382649,41.35413 22.66236,42.17142 24,41.636364 c 0.331646,-0.132659 0.395626,-0.230978 0.727273,-0.363637 0.710554,-0.284221 1.471264,-0.443051 2.181818,-0.727272 C 27.285266,40.394984 27.623824,40.15047 28,40 c 1.830231,-0.732092 -0.386035,0.141963 0.909091,-0.181818 0.262946,-0.06574 0.470143,-0.277927 0.727273,-0.363637 0.474123,-0.158041 0.969697,-0.242424 1.454545,-0.363636 0.242424,-0.06061 0.493298,-0.09408 0.727273,-0.181818 0.253781,-0.09517 0.478149,-0.256869 0.727273,-0.363636 0.176157,-0.0755 0.367509,-0.11064 0.545454,-0.181819 0.02513,-0.01005 0.718697,-0.361921 0.727273,-0.363636 0.178287,-0.03566 0.367167,0.03566 0.545454,0 0.32908,0.109587 0.33815,-0.294535 0.545455,-0.363636 0.114992,-0.03833 0.246043,0.0294 0.363636,0 0.131473,-0.03287 0.235072,-0.138964 0.363637,-0.181819 0.0575,-0.01917 0.124322,0.01917 0.181818,0 0.128565,-0.04286 0.23781,-0.131487 0.363636,-0.181818 0.177946,-0.07118 0.374035,-0.09611 0.545455,-0.181818 0.07666,-0.03833 0.105157,-0.143487 0.181818,-0.181818 0.108415,-0.05421 0.255221,0.05421 0.363636,0 0.07666,-0.03833 0.105157,-0.143488 0.181818,-0.181818 0.108416,-0.05421 0.277927,0.08571 0.363637,0 0.04286,-0.04285 -0.05421,-0.154715 0,-0.181818 0.108415,-0.05421 0.255221,0.05421 0.363636,0 0.05421,-0.0271 -0.04286,-0.138964 0,-0.181819 0.04286,-0.04286 0.127611,0.0271 0.181818,0 0.07666,-0.03833 0.105157,-0.143487 0.181819,-0.181818 0.05421,-0.0271 0.138963,0.04286 0.181818,0 0.04286,-0.04286 -0.04285,-0.138963 0,-0.181818 0.08571,-0.08571 0.255221,0.05421 0.363636,0 0.244898,-0.122449 0.118738,-0.241187 0.363636,-0.363636 0.05421,-0.0271 0.138964,0.04286 0.181819,0 0.04286,-0.04286 -0.04286,-0.138964 0,-0.181819 0.04286,-0.04286 0.12761,0.0271 0.181818,0 0.07666,-0.03833 0.105157,-0.143487 0.181818,-0.181818 0.05421,-0.0271 0.138963,0.04285 0.181818,0 0.04286,-0.04286 -0.04286,-0.138963 0,-0.181818 0.484849,0 -0.06061,0.06061 0.181818,-0.181818 0.04286,-0.04285 0.138964,0.04286 0.181819,0 0.08571,-0.08571 -0.05421,-0.255221 0,-0.363636 0.378341,-0.756684 -0.01255,0.19437 0.363636,-0.181819 0.04286,-0.04286 -0.04285,-0.138963 0,-0.181818 0.04286,-0.04286 0.138963,0.04286 0.181818,0 0.04285,-0.04286 -0.04286,-0.138963 0,-0.181818 0.09091,-0.09091 0.454546,0.09091 0.545455,0 0.04286,-0.04286 -0.04286,-0.138963 0,-0.181818 0.04286,-0.04286 0.181818,-0.06061 0.181818,0 0,0.06061 -0.181818,0.06061 -0.181818,0 0,-0.08571 0.105157,-0.143488 0.181818,-0.181818 0.125588,-0.06279 0.845269,0.06382 0.909091,0 0.04286,-0.04286 -0.04285,-0.138964 0,-0.181819 0.04375,-0.04375 0.683521,0.04375 0.727272,0 0.04285,-0.04286 -0.04286,-0.138963 0,-0.181818 0.09091,-0.09091 0.454546,0.09091 0.545455,0 0.04286,-0.04286 -0.04286,-0.138963 0,-0.181818 0.04286,-0.04286 0.181818,-0.06061 0.181818,0 0,0.06061 -0.224673,0.04285 -0.181818,0 0.09583,-0.09583 0.242424,-0.121212 0.363636,-0.181818"
       id="path2838" />
    <path
       style="fill:none;stroke:#000000;stroke-width:1px;stroke-linecap:butt;stroke-linejoin:miter;stroke-opacity:1"
       d="m 46.363636,27.272727 c -0.242424,0 -0.898692,-0.17142 -0.727272,0 0.193704,0.193704 0.752013,0.181818 1.090909,0.181818 0.0441,0 0.539607,-0.0058 0.545454,0 0.04285,0.04285 -0.04286,0.138964 0,0.181819 0.04285,0.04285 0.121212,0 0.181818,0 0.06061,0 0.121213,0 0.181819,0 0.128873,0 1.0439,-0.02351 1.090909,0 0.07666,0.03833 0.105157,0.143487 0.181818,0.181818 0.09863,0.04932 0.677523,-0.04975 0.727273,0 0.04286,0.04285 -0.04286,0.138963 0,0.181818 0.03717,0.03717 0.473365,-0.03605 0.545454,0 0.07666,0.03833 0.105157,0.143488 0.181818,0.181818 0.05421,0.0271 0.127611,-0.0271 0.181819,0 0.153322,0.07666 0.201013,0.309429 0.363636,0.363637 0.114992,0.03833 0.255221,-0.05421 0.363636,0 0.05421,0.0271 -0.04286,0.138963 0,0.181818 0.04285,0.04285 0.127611,-0.0271 0.181818,0 0.07666,0.03833 0.105157,0.143487 0.181819,0.181818 0.05421,0.0271 0.138963,-0.04285 0.181818,0 0.04286,0.04285 -0.04286,0.138963 0,0.181818 0.08571,0.08571 0.277926,-0.08571 0.363636,0 0.04286,0.04285 -0.04286,0.138963 0,0.181818 0.04286,0.04285 0.138963,-0.04285 0.181818,0 0.04286,0.04285 -0.04286,0.138963 0,0.181818 0.04286,0.04285 0.127611,-0.0271 0.181819,0 0.224673,0.112337 0.181818,0.175543 0.181818,0.363637 0,0.06061 0.0271,0.12761 0,0.181818 -0.03833,0.07666 -0.143488,0.105157 -0.181818,0.181818 -0.0271,0.05421 0.04286,0.138963 0,0.181818 -0.04285,0.04285 -0.138964,-0.04285 -0.181819,0 -0.04286,0.04285 0.06061,0.181819 0,0.181819 -0.05433,0 0.11969,-0.603015 -0.181818,0 0,0.484848 0.06061,-0.06061 -0.181818,0.181818 -0.04286,0.04285 0.04286,0.138963 0,0.181818 -0.04286,0.04285 -0.138963,-0.04285 -0.181818,0 -0.08571,0.08571 0.08571,0.277926 0,0.363636 -0.04286,0.04285 -0.138963,-0.04285 -0.181818,0 -0.08571,0.08571 0.08571,0.277927 0,0.363637 -0.04286,0.04285 -0.138964,-0.04285 -0.181819,0 -0.04286,0.04285 0.04285,0.138963 0,0.181818 -0.04286,0.04285 -0.138963,-0.04285 -0.181818,0 -0.08571,0.08571 0.08571,0.277926 0,0.363636 -0.04286,0.04286 -0.121212,0 -0.181818,0 0,0.06061 0.04285,0.138963 0,0.181818 -0.04286,0.04286 -0.138963,-0.04286 -0.181818,0 -0.04285,0.04286 0.04286,0.138964 0,0.181819 -0.04285,0.04286 -0.127611,-0.0271 -0.181818,0 -0.07666,0.03833 -0.105157,0.143487 -0.181818,0.181818 -0.05421,0.0271 -0.138964,-0.04285 -0.181819,0 -0.08571,0.08571 0.08571,0.277926 0,0.363636 -0.04286,0.04285 -0.12761,-0.0271 -0.181818,0 -0.0348,0.0174 -0.709871,0.692469 -0.727273,0.727273 -0.0271,0.05421 0.04285,0.138963 0,0.181818 -0.04286,0.04286 -0.138963,-0.04286 -0.181818,0 -0.04286,0.04286 0.04285,0.138963 0,0.181818 -0.04286,0.04286 -0.138963,-0.04286 -0.181818,0 -0.04286,0.04286 0.04285,0.138963 0,0.181818 -0.04286,0.04286 -0.138963,-0.04286 -0.181818,0 -0.08571,0.08571 0.08571,0.277927 0,0.363637 -0.04285,0.04286 -0.138963,-0.04285 -0.181818,0 -0.04285,0.04286 0.04286,0.138963 0,0.181818 -0.04285,0.04286 -0.181818,0.06061 -0.181818,0 0,-0.06061 0.121212,0 0.181818,0"
       id="path2840" />
    <path
       style="fill:none;stroke:#000000;stroke-width:1px;stroke-linecap:butt;stroke-linejoin:miter;stroke-opacity:1"
       d="m 15.454545,45.272727 c 0.426396,0 -0.08571,-0.04286 0.363637,0.181818 0.05421,0.0271 0.138963,-0.04286 0.181818,0 0.04285,0.04285 -0.04285,0.138964 0,0.181819 0.08571,0.08571 0.277926,-0.08571 0.363636,0 0.04285,0.04286 -0.04285,0.138963 0,0.181818 0.08571,0.08571 0.255221,-0.05421 0.363637,0 0.07666,0.03833 0.105157,0.143487 0.181818,0.181818 0.145454,0.07273 0.4,-0.07273 0.545454,0 0.05421,0.0271 -0.04285,0.138963 0,0.181818 0.08571,0.08571 0.255221,-0.05421 0.363637,0 0.07666,0.03833 0.105157,0.143488 0.181818,0.181818 0.145455,0.07273 0.4,-0.07273 0.545455,0 0.07666,0.03833 0.105156,0.143488 0.181818,0.181819 0.108415,0.05421 0.255221,-0.05421 0.363636,0 0.07666,0.03833 0.105157,0.143487 0.181818,0.181818 0.05421,0.0271 0.138963,-0.04285 0.181818,0 0.04285,0.04286 -0.04285,0.138963 0,0.181818 0.08571,0.08571 0.255221,-0.05421 0.363637,0 0.07666,0.03833 0.105157,0.143487 0.181818,0.181818 0.07209,0.03604 0.508284,-0.03717 0.545455,0 0.04285,0.04285 -0.04285,0.138963 0,0.181818 0.08571,0.08571 0.25522,-0.05421 0.363636,0 0.07666,0.03833 0.105157,0.143488 0.181818,0.181818 0.05421,0.0271 0.138963,-0.04286 0.181818,0 0.04285,0.04285 -0.04285,0.138964 0,0.181819 0.04285,0.04286 0.138963,-0.04286 0.181818,0 0.04285,0.04286 -0.04285,0.138963 0,0.181818 0.08571,0.08571 0.277927,-0.08571 0.363637,0 0.04285,0.04286 -0.04285,0.138963 0,0.181818 0.04285,0.04286 0.138963,-0.04286 0.181818,0 0.04285,0.04286 -0.04285,0.138963 0,0.181818 0.04285,0.04286 0.138963,-0.04286 0.181818,0 0.04285,0.04286 -0.04285,0.138963 0,0.181818 0.04285,0.04286 0.138963,-0.04286 0.181818,0 0.04285,0.04286 -0.04285,0.138964 0,0.181819 0.04285,0.04286 0.138964,-0.04285 0.181819,0 0.04285,0.04286 -0.04285,0.138963 0,0.181818 0.04285,0.04286 0.138963,-0.04285 0.181818,0 0.04285,0.04286 -0.04285,0.138963 0,0.181818 0.04285,0.04286 0.138963,-0.04285 0.181818,0 0.04285,0.04286 -0.04285,0.138963 0,0.181818 0.04285,0.04285 0.138963,-0.04286 0.181818,0 0.04285,0.04285 -0.04285,0.138963 0,0.181818 0.04285,0.04285 0.138963,-0.04286 0.181818,0 0.08571,0.08571 -0.05421,0.255221 0,0.363637 0.03833,0.07666 0.143488,0.105157 0.181818,0.181818 0.0271,0.05421 -0.0271,0.12761 0,0.181818 0.03833,0.07666 0.143488,0.105157 0.181819,0.181818 0.04932,0.09863 -0.04975,0.677523 0,0.727273 0.04285,0.04286 0.138963,-0.04285 0.181818,0 0.09091,0.09091 -0.09091,0.454545 0,0.545454 0.04285,0.04285 0.138963,-0.04286 0.181818,0 0.03574,0.03574 -0.123065,0.850338 0.181818,0.545455 0.04285,-0.04286 -0.04285,-0.138963 0,-0.181818 0.04285,-0.04286 0.138963,0.04286 0.181818,0 0.08571,-0.08571 -0.08571,-0.277927 0,-0.363637 0.04285,-0.04286 0.138964,0.04285 0.181819,0 0.04285,-0.04286 -0.04285,-0.138963 0,-0.181818 0.04285,-0.04286 0.138963,0.04285 0.181818,0 0.04285,-0.04286 -0.04285,-0.138963 0,-0.181818 0.04285,-0.04286 0.138963,0.04285 0.181818,0 0.04375,-0.04375 -0.04375,-0.683522 0,-0.727273 0.04285,-0.04286 0.138963,0.04286 0.181818,0 0.0082,-0.0082 0,-0.823364 0,-0.909091 0,-0.30303 0,-0.60606 0,-0.90909 0,-0.06061 0.04285,-0.138964 0,-0.181819 -0.04285,-0.04286 -0.138963,0.04286 -0.181818,0 -0.08571,-0.08571 0.05421,-0.255221 0,-0.363636 -0.603015,-0.603015 0.08571,0.17142 -0.181818,-0.363636 -0.03833,-0.07666 -0.143488,-0.105157 -0.181818,-0.181819 -0.0271,-0.05421 0,-0.121212 0,-0.181818 -0.06061,-0.06061 -0.143488,-0.105157 -0.181819,-0.181818 -0.0271,-0.05421 0.04285,-0.138963 0,-0.181818 -0.04285,-0.04285 -0.138963,0.04286 -0.181818,0 -0.04285,-0.04285 0.04285,-0.138963 0,-0.181818 -0.04285,-0.04285 -0.138963,0.04286 -0.181818,0 -0.04285,-0.04285 0.04285,-0.138963 0,-0.181818 -0.04285,-0.04285 -0.138963,0.04286 -0.181818,0 -0.04285,-0.04285 0.04285,-0.138964 0,-0.181819 -0.0563,-0.0563 -0.852792,0.0563 -0.909091,0 -0.04285,-0.04286 0.04285,-0.138963 0,-0.181818 -0.08571,-0.08571 -0.277927,0.08571 -0.363636,0 -0.04285,-0.04286 0,-0.121212 0,-0.181818 0,-0.06061 -0.04285,-0.138963 0,-0.181818 0.04285,-0.04286 0.138963,0.04286 0.181818,0 0.04285,-0.04286 -0.04285,-0.138963 0,-0.181818 0.04285,-0.04286 0.138963,0.04286 0.181818,0 0.04285,-0.04286 -0.04285,-0.138964 0,-0.181819 0.06061,-0.06061 0.30303,0.06061 0.363636,0 0.04285,-0.04286 -0.04285,-0.138963 0,-0.181818 0.04285,-0.04286 0.121212,0 0.181818,0 0.06061,0 0.121213,0 0.181819,0 0.06061,0 0.121212,0 0.181818,0 0.06061,0 0.138963,0.04285 0.181818,0 0.04285,-0.04286 -0.04285,-0.138963 0,-0.181818 0.09091,-0.09091 0.454545,0.09091 0.545455,0 0.04285,-0.04286 -0.04285,-0.138963 0,-0.181818 0.08571,-0.08571 0.25522,0.05421 0.363636,0 0.603015,-0.603015 -0.17142,0.08571 0.363636,-0.181818 0.07666,-0.03833 0.105157,-0.143488 0.181818,-0.181818 0.108416,-0.05421 0.277927,0.08571 0.363637,0 0.04285,-0.04285 -0.04285,-0.138964 0,-0.181819 0.04975,-0.04975 0.628638,0.04932 0.727273,0 0.07666,-0.03833 0.105156,-0.143487 0.181818,-0.181818 0.05421,-0.0271 0.121212,0 0.181818,0 0.06061,0 0.121212,0 0.181818,0 0.30303,0 0.606061,0 0.909091,0 0.727273,0 1.454545,0 2.181818,0 0.163885,0 0.794655,0.03815 0.909091,0 0.128565,-0.04286 0.235072,-0.138963 0.363636,-0.181818 0.171294,-0.0571 0.973028,0.05894 1.09091,0 0.07666,-0.03833 0.105156,-0.143488 0.181818,-0.181818 0.145454,-0.07273 0.4,0.07273 0.545454,0 0.07666,-0.03833 0.105157,-0.143488 0.181818,-0.181818 0.145455,-0.07273 0.4,0.07273 0.545455,0 0.07666,-0.03833 0.105157,-0.143488 0.181818,-0.181819 0.07209,-0.03604 0.508284,0.03717 0.545455,0 0.04286,-0.04286 -0.04285,-0.138963 0,-0.181818 0.09091,-0.09091 0.454545,0.09091 0.545454,0 0.04285,-0.04286 -0.04286,-0.138963 0,-0.181818 0.08571,-0.08571 0.255221,0.05421 0.363637,0 0.07666,-0.03833 0.105157,-0.143487 0.181818,-0.181818 0.05421,-0.0271 0.138963,0.04286 0.181818,0 0.04286,-0.04285 -0.04286,-0.138963 0,-0.181818 0.08571,-0.08571 0.277926,0.08571 0.363636,0 0.04286,-0.04285 -0.04286,-0.138963 0,-0.181818 0.08571,-0.08571 0.277927,0.08571 0.363637,0 0.04286,-0.04285 -0.04285,-0.138964 0,-0.181819 0.08571,-0.08571 0.255221,0.05421 0.363636,0 0.244898,-0.122449 0.118738,-0.241187 0.363636,-0.363636 0.05421,-0.0271 0.121213,0 0.181819,0 0.06061,-0.06061 0.105157,-0.143488 0.181818,-0.181818 0.05421,-0.0271 0.138963,0.04286 0.181818,0 0.04286,-0.04286 -0.04286,-0.138963 0,-0.181818 0.08571,-0.08571 0.277926,0.08571 0.363636,0 0.04286,-0.04286 -0.04286,-0.138964 0,-0.181819 0.08571,-0.08571 0.255221,0.05421 0.363637,0 0.07666,-0.03833 0.105157,-0.143487 0.181818,-0.181818 0.108415,-0.05421 0.255221,0.05421 0.363636,0 0.07666,-0.03833 0.105157,-0.143487 0.181818,-0.181818 0.05421,-0.0271 0.138964,0.04285 0.181819,0 0.04286,-0.04286 -0.04286,-0.138963 0,-0.181818 0.04375,-0.04375 0.683521,0.04375 0.727272,0 0.04286,-0.04285 -0.04286,-0.138963 0,-0.181818 0.04286,-0.04285 0.127611,0.0271 0.181819,0 0.07666,-0.03833 0.105156,-0.143488 0.181818,-0.181818 0.145454,-0.07273 0.4,0.07273 0.545454,0 0.07666,-0.03833 0.105157,-0.143488 0.181818,-0.181819 0.05421,-0.0271 0.127611,0.0271 0.181819,0 0.07666,-0.03833 0.105157,-0.143487 0.181818,-0.181818 0.108415,-0.05421 0.277926,0.08571 0.363636,0 0.04286,-0.04286 -0.04286,-0.138963 0,-0.181818 0.09091,-0.09091 0.454546,0.09091 0.545455,0 0.04286,-0.04286 -0.04285,-0.138963 0,-0.181818 0.08571,-0.08571 0.277926,0.08571 0.363636,0 0.04285,-0.04286 -0.04286,-0.138963 0,-0.181818 0.09091,-0.09091 0.454546,0.09091 0.545455,0 0.04286,-0.04286 -0.04286,-0.138964 0,-0.181819 0.08571,-0.08571 0.255221,0.05421 0.363636,0 0.07666,-0.03833 0.105157,-0.143487 0.181818,-0.181818 0.108416,-0.05421 0.277927,0.08571 0.363637,0 0.04286,-0.04286 -0.04285,-0.138963 0,-0.181818 0.03717,-0.03717 0.473365,0.03604 0.545454,0 0.07666,-0.03833 0.105157,-0.143487 0.181818,-0.181818 0.05421,-0.0271 0.127611,0.0271 0.181818,0 0.07666,-0.03833 0.105157,-0.143488 0.181819,-0.181818 0.07209,-0.03604 0.508284,0.03717 0.545454,0 0.242424,-0.242425 -0.30303,-0.181818 0.181818,-0.181818 0.0441,0 0.539608,0.0058 0.545455,0 0.04286,-0.04285 -0.04285,-0.138964 0,-0.181819 0.0058,-0.0058 0.501359,0 0.545454,0 0.426396,0 -0.08571,0.04286 0.363637,-0.181818 0.114277,-0.05714 0.612996,0.05714 0.727273,0 0.07666,-0.03833 0.105156,-0.143487 0.181818,-0.181818 0.108415,-0.05421 0.255221,0.05421 0.363636,0 0.07666,-0.03833 0.105157,-0.143488 0.181818,-0.181818 0.09863,-0.04932 0.677524,0.04975 0.727273,0 0.242424,-0.242424 -0.30303,-0.181818 0.181818,-0.181818"
       id="path2842" />
    <path
       style="fill:none;stroke:#000000;stroke-width:1px;stroke-linecap:butt;stroke-linejoin:miter;stroke-opacity:1"
       d="m 35.454545,28 c -0.06061,0.242424 -0.358513,0.903968 -0.181818,0.727273 0.230781,-0.230781 0.195719,-0.629228 0.363637,-0.909091 0.03118,-0.05197 0.138963,0.04285 0.181818,0 0,-0.484849 -0.06061,0.06061 0.181818,-0.181818 0.04286,-0.04285 -0.0271,-0.127611 0,-0.181819 0.03833,-0.07666 0.143488,-0.105156 0.181818,-0.181818 0.0271,-0.05421 -0.04286,-0.138963 0,-0.181818 0.04286,-0.04285 0.138963,0.04285 0.181818,0 0.04286,-0.04285 -0.0271,-0.12761 0,-0.181818 0.201005,-0.40201 0.112845,-0.05642 0.363637,-0.181818 0.756683,-0.378342 -0.19437,0.01255 0.181818,-0.363637 0.04286,-0.04285 0.138963,0.04285 0.181818,0 0.04285,-0.04285 -0.04286,-0.138963 0,-0.181818 0.04285,-0.04285 0.138963,0.04285 0.181818,0 0.04285,-0.04285 -0.04286,-0.138963 0,-0.181818 0.04285,-0.04285 0.127611,0.0271 0.181818,0 0.153323,-0.07666 0.210314,-0.286975 0.363637,-0.363636 0.05421,-0.0271 0.138963,0.04285 0.181818,0 0.04286,-0.04285 -0.04286,-0.138964 0,-0.181819 0.04286,-0.04285 0.138963,0.04285 0.181818,0 0.04286,-0.04285 -0.04286,-0.138963 0,-0.181818 0.08571,-0.08571 0.277927,0.08571 0.363637,0 0.04286,-0.04285 -0.04285,-0.138963 0,-0.181818 0.04286,-0.04285 0.121212,0 0.181818,0 0.06061,0 0.121212,0 0.181818,0 0.06061,0 0.181818,-0.06061 0.181818,0 0,0.06061 -0.181818,0.06061 -0.181818,0 0,-0.06061 0.121212,0 0.181818,0 0.181818,0 0.363636,0 0.545455,0 0.121212,0 0.242424,0 0.363636,0 0.06061,0 0.181818,-0.06061 0.181818,0 0,0.06061 -0.181818,-0.06061 -0.181818,0 0,0.246609 0.363636,0.166314 0.363636,0.181818 0,0.06061 -0.181818,-0.06061 -0.181818,0 0,0.08571 0.105157,0.143488 0.181818,0.181818 0.05421,0.0271 0.181819,-0.06061 0.181819,0 0,0.06061 -0.181819,-0.06061 -0.181819,0 0,0.378342 0.254977,0.07316 0.363637,0.181819 0.04286,0.04285 -0.04285,0.138963 0,0.181818 0.08571,0.08571 0.255221,-0.05421 0.363636,0 0.07666,0.03833 0.105157,0.143487 0.181818,0.181818 0.05421,0.0271 0.121212,0 0.181818,0 0.06061,0 0.121213,0 0.181819,0 0.426396,0 -0.08571,-0.04285 0.363636,0.181818 0.09863,0.04932 0.677523,-0.04975 0.727273,0 0.04286,0.04285 -0.04285,0.138963 0,0.181818 0.04375,0.04375 0.683521,-0.04375 0.727272,0 0.04285,0.04285 -0.04286,0.138964 0,0.181819 0.09091,0.09091 0.454546,-0.09091 0.545455,0 0.04286,0.04285 0,0.121212 0,0.181818"
       id="path2844" />
    <path
       style="fill:none;stroke:#000000;stroke-width:1px;stroke-linecap:butt;stroke-linejoin:miter;stroke-opacity:1"
       d="m 36.181818,28.909091 c -0.242424,0 -0.969697,0 -0.727273,0 0.303031,0 0.606061,0 0.909091,0 0,0.06061 -0.04286,0.138963 0,0.181818 0.04286,0.04285 0.121212,0 0.181819,0 0.06061,0 0.121212,0 0.181818,0 0.60606,0 1.212121,0 1.818182,0 0.424242,0 0.848484,0 1.272727,0 0.181818,0 0.363636,0 0.545454,0 0.06061,0 0.181819,-0.06061 0.181819,0 0,0.06061 -0.242425,0 -0.181819,0 0.121212,0 0.242425,0 0.363637,0 0.06061,0 0.138963,0.04285 0.181818,0 0.04286,-0.04285 -0.04285,-0.138963 0,-0.181818 0.04286,-0.04285 0.138963,0.04285 0.181818,0 0.08571,-0.08571 -0.08571,-0.277927 0,-0.363636 0.04285,-0.04285 0.138963,0.04285 0.181818,0 0.08571,-0.08571 -0.08571,-0.277927 0,-0.363637 0.04285,-0.04285 0.138963,0.04285 0.181818,0 0.08571,-0.08571 -0.08571,-0.277926 0,-0.363636 0.04285,-0.04285 0.138964,0.04285 0.181819,0 0.06061,-0.06061 -0.06061,-0.30303 0,-0.363637 0.04286,-0.04285 0.138963,0.04285 0.181818,0 0.04286,-0.04285 -0.04286,-0.138963 0,-0.181818 0.04286,-0.04285 0.138963,0.04285 0.181818,0 0.09091,-0.09091 -0.09091,-0.454545 0,-0.545454 0.04286,-0.04285 0.138963,0.04285 0.181818,0 0.08571,-0.08571 -0.08571,-0.277927 0,-0.363637 0.04286,-0.04285 0.181818,-0.06061 0.181818,0 0,0.08571 -0.121212,0.121212 -0.181818,0.181819"
       id="path2846" />
    <path
       style="fill:none;stroke:#000000;stroke-width:1px;stroke-linecap:butt;stroke-linejoin:miter;stroke-opacity:1"
       d="M 37.636364,27.272727 C 37.757576,27.030303 38,26.274416 38,26.545455 c -0.121212,0.30303 -0.242424,0.60606 -0.363636,0.90909 -0.06061,0 -0.138964,-0.04285 -0.181819,0 -0.01818,0.01818 -0.01818,0.527273 0,0.545455 0.04285,0.04285 0.138964,-0.04285 0.181819,0 0.04286,0.04285 -0.04286,0.138963 0,0.181818 0.04286,0.04285 0.138963,-0.04285 0.181818,0 0.04286,0.04285 -0.04286,0.138963 0,0.181818 0.04286,0.04285 0.138963,-0.04285 0.181818,0 0.04286,0.04285 0,0.121212 0,0.181819"
       id="path2848" />
    <path
       style="fill:none;stroke:#000000;stroke-width:1px;stroke-linecap:butt;stroke-linejoin:miter;stroke-opacity:1"
       d="m 33.090909,45.090909 c -0.242424,0 -1.69697,-0.727273 -1.454546,-0.727273 0.787879,0 2.303031,0.727273 3.09091,0.727273 0.126462,0 0.843339,-0.03288 0.909091,0 0.07666,0.03833 0.105157,0.143488 0.181818,0.181818 0.04781,0.0239 0.632196,0 0.727273,0 0.08573,0 0.90085,-0.0082 0.90909,0 0.04285,0.04285 -0.04286,0.138963 0,0.181818 0.06061,0.06061 0.303031,-0.06061 0.363637,0 0.04286,0.04285 -0.04286,0.138964 0,0.181819 0.09091,0.09091 0.454545,-0.09091 0.545454,0 0.04286,0.04286 -0.04286,0.138963 0,0.181818 0.08571,0.08571 0.277927,-0.08571 0.363637,0 0.04286,0.04286 -0.04285,0.138963 0,0.181818 0.09091,0.09091 0.454545,-0.09091 0.545454,0 0.04285,0.04286 -0.04286,0.138963 0,0.181818 0.09091,0.09091 0.454546,-0.09091 0.545455,0 0.04286,0.04286 -0.04286,0.138963 0,0.181818 0.04975,0.04975 0.628638,-0.04932 0.727273,0 0.07666,0.03833 0.105156,0.143488 0.181818,0.181819 0.117881,0.05894 0.919615,-0.0571 1.090909,0 0.128565,0.04286 0.235071,0.138963 0.363636,0.181818 0.100241,0.03341 0.6884,-0.03887 0.727273,0 0.04286,0.04286 -0.04285,0.138963 0,0.181818 0.04375,0.04375 0.683522,-0.04375 0.727273,0 0.04286,0.04286 -0.04286,0.138963 0,0.181818 0.08571,0.08571 0.255221,-0.05421 0.363636,0 0.07666,0.03833 0.105157,0.143488 0.181818,0.181818 0.05421,0.0271 0.138963,-0.04286 0.181818,0 0.04286,0.04285 -0.04286,0.138963 0,0.181818 0.08571,0.08571 0.277927,-0.08571 0.363637,0 0.04286,0.04285 -0.04285,0.138964 0,0.181819 0.04286,0.04286 0.138963,-0.04286 0.181818,0 0.04286,0.04286 -0.04285,0.138963 0,0.181818 0.376188,0.376188 -0.01471,-0.574866 0.363636,0.181818 0.0271,0.05421 -0.04286,0.138963 0,0.181818 0.04285,0.04286 0.138963,-0.04286 0.181818,0 0.08571,0.08571 -0.08571,0.277927 0,0.363637 0.04285,0.04286 0.138964,-0.04285 0.181819,0 0.04286,0.04286 -0.0271,0.12761 0,0.181818 0.03833,0.07666 0.143487,0.105157 0.181818,0.181818 0.0271,0.05421 -0.04286,0.138963 0,0.181818 0.04286,0.04285 0.138963,-0.04286 0.181818,0 0.08571,0.08571 -0.05421,0.255221 0,0.363636 0.03833,0.07666 0.143488,0.105157 0.181818,0.181819 0.05421,0.108415 -0.05421,0.255221 0,0.363636 0.03833,0.07666 0.143488,0.105157 0.181818,0.181818 0.0552,0.110404 -0.0552,0.980505 0,1.090909 0.03833,0.07666 0.143488,0.105157 0.181819,0.181818 0.0271,0.05421 0,0.121213 0,0.181819 0,0.06061 0,0.121212 0,0.181818 0,0.363636 0,0.727273 0,1.090909 0,0.06061 0.04286,0.138963 0,0.181818 -0.04285,0.04285 -0.138964,-0.04286 -0.181819,0 -0.08571,0.08571 0.05421,0.255221 0,0.363636 -0.03833,0.07666 -0.143487,0.105157 -0.181818,0.181819 -0.0271,0.05421 0,0.121212 0,0.181818 C 46.121212,53.878788 46.038331,53.923339 46,54 c -0.0271,0.05421 0.04286,0.138963 0,0.181818 -0.04286,0.04286 -0.138963,-0.04286 -0.181818,0 -0.08571,0.08571 0.08571,0.277927 0,0.363637 -0.04286,0.04286 -0.138963,-0.04285 -0.181818,0 -0.04286,0.04286 0.04286,0.138963 0,0.181818 -0.04286,0.04286 -0.138964,-0.04285 -0.181819,0 -0.04286,0.04286 0,0.121212 0,0.181818 0,0.30303 0,0.606061 0,0.909091 0,0.06061 0.04285,0.138963 0,0.181818 -0.04286,0.04286 -0.138963,-0.04286 -0.181818,0 -0.04975,0.04975 0.04932,0.628639 0,0.727273 -0.03833,0.07666 -0.143487,0.105157 -0.181818,0.181818 -0.03605,0.07209 0.03717,0.508284 0,0.545454 -0.04286,0.04285 -0.138963,-0.04286 -0.181818,0 -0.09091,0.09091 0.09091,0.454546 0,0.545455 -0.04285,0.04286 -0.138963,-0.04286 -0.181818,0 -0.04285,0.04286 0.0271,0.12761 0,0.181818 -0.03833,0.07666 -0.143488,0.105157 -0.181818,0.181818 -0.0271,0.05421 0.04286,0.138964 0,0.181819 -0.04285,0.04286 -0.138964,-0.04285 -0.181819,0 -0.04286,0.04286 0.04286,0.138963 0,0.181818 -0.04286,0.04286 -0.12761,-0.0271 -0.181818,0 -0.07666,0.03833 -0.105157,0.143487 -0.181818,0.181818 -0.05421,0.0271 -0.138963,-0.04285 -0.181818,0 -0.04286,0.04286 0.04286,0.138963 0,0.181818 -0.04286,0.04285 -0.138963,-0.04286 -0.181818,0 -0.04286,0.04285 0.04286,0.138963 0,0.181818 -0.08571,0.08571 -0.277927,-0.08571 -0.363637,0 -0.04286,0.04285 0.04285,0.138963 0,0.181818 -0.04286,0.04285 -0.12761,-0.0271 -0.181818,0 -0.07666,0.03833 -0.105157,0.143488 -0.181818,0.181819 -0.05421,0.0271 -0.138963,-0.04286 -0.181818,0 -0.04285,0.04286 0.04286,0.138963 0,0.181818 -0.04285,0.04286 -0.127611,-0.0271 -0.181818,0 -0.07666,0.03833 -0.105157,0.143487 -0.181819,0.181818 -0.05421,0.0271 -0.138963,-0.04286 -0.181818,0 -0.04286,0.04286 0.04286,0.138963 0,0.181818 -0.04286,0.04286 -0.12761,-0.0271 -0.181818,0 -0.07666,0.03833 -0.105157,0.143488 -0.181818,0.181818 -0.108416,0.05421 -0.255221,-0.05421 -0.363637,0 -0.603015,0.603015 0.17142,-0.08571 -0.363636,0.181819 -0.07666,0.03833 -0.100507,0.154714 -0.181818,0.181818 -0.114992,0.03833 -0.255221,-0.05421 -0.363636,0 -0.05421,0.0271 0.04286,0.138963 0,0.181818 -0.04285,0.04286 -0.121213,0 -0.181819,0 0,0.06061 0.04286,0.138963 0,0.181818 -0.09091,0.09091 -0.454545,-0.09091 -0.545454,0 -0.04286,0.04285 0.04286,0.138963 0,0.181818 -0.06061,0.06061 -0.30303,-0.06061 -0.363637,0 -0.04286,0.04285 0.04285,0.138963 0,0.181818 -0.08571,0.08571 -0.25522,-0.05421 -0.363636,0 -0.07666,0.03833 -0.105157,0.143488 -0.181818,0.181819 -0.05421,0.0271 -0.127611,-0.0271 -0.181818,0 -0.07666,0.03833 -0.105157,0.143487 -0.181818,0.181818 -0.05421,0.0271 -0.121213,0 -0.181819,0 C 38.303026,61.878792 38.258479,61.961669 38.181818,62 38.127608,62.0271 38.054208,61.9729 38,62 c -0.07666,0.03833 -0.105157,0.143488 -0.181818,0.181818 -0.05421,0.0271 -0.138963,-0.04286 -0.181818,0 -0.04286,0.04286 0.04286,0.138963 0,0.181818 -0.08571,0.08571 -0.255221,-0.05421 -0.363637,0 -0.07666,0.03833 -0.121212,0.121212 -0.181818,0.181819 -0.121212,0 -0.255221,-0.05421 -0.363636,0 -0.05421,0.0271 0.04286,0.138963 0,0.181818 -0.04285,0.04286 -0.127611,-0.0271 -0.181818,0 -0.07666,0.03833 -0.105157,0.143487 -0.181819,0.181818 -0.05421,0.0271 -0.12761,-0.0271 -0.181818,0 -0.07666,0.03833 -0.105157,0.143487 -0.181818,0.181818 -0.108415,0.05421 -0.248644,-0.03833 -0.363636,0 -0.25713,0.08571 -0.47562,0.262975 -0.727273,0.363636 -0.177946,0.07118 -0.367509,0.11064 -0.545455,0.181819 -0.125826,0.05033 -0.235071,0.138963 -0.363636,0.181818 -0.0575,0.01917 -0.12761,-0.0271 -0.181818,0 -0.07666,0.03833 -0.09867,0.16103 -0.181818,0.181818 -0.17639,0.0441 -0.369065,-0.0441 -0.545455,0 -0.08315,0.02079 -0.105157,0.143488 -0.181818,0.181818 -0.108416,0.05421 -0.248645,-0.03833 -0.363636,0 -0.128565,0.04285 -0.235072,0.138963 -0.363637,0.181818 -0.07075,0.02358 -0.517239,-0.02822 -0.545454,0 -0.04285,0.04286 0.04285,0.138964 0,0.181819 -0.0058,0.0058 -0.501359,0 -0.545455,0 -0.0441,0 -0.539607,-0.0058 -0.545454,0 -0.04285,0.04286 0.04285,0.138963 0,0.181818 -0.04975,0.04975 -0.628639,-0.04932 -0.727273,0 -0.07666,0.03833 -0.121212,0.121212 -0.181818,0.181818"
       id="path2850"
       sodipodi:nodetypes="csssssssssssssssssssssssssssssssssssssssssssssssssssssssssssssssssssssssssssssssssssssssssssssssscssssssssssssssssssssssssssssssssssssssssssssc" />
    <path
       style="fill:none;stroke:#000000;stroke-width:1px;stroke-linecap:butt;stroke-linejoin:miter;stroke-opacity:1"
       d="M 15.636364,41.454545 C 15.393939,41.636364 14.909091,42.30303 14.909091,42 c 0.242424,-0.30303 0.484848,-0.606061 0.727273,-0.909091 0.06061,0 0.138963,0.04285 0.181818,0 0.04285,-0.04286 -0.04285,-0.138963 0,-0.181818 0.04285,-0.04285 0.138963,0.04286 0.181818,0 0.04285,-0.04285 -0.04285,-0.138963 0,-0.181818 0.04285,-0.04285 0.138963,0.04286 0.181818,0 0.08571,-0.08571 -0.08571,-0.277927 0,-0.363637 0.04285,-0.04286 0.138963,0.04286 0.181818,0 0.06061,-0.06061 -0.06061,-0.30303 0,-0.363636 0.04285,-0.04286 0.138964,0.04286 0.181819,0 0.04285,-0.04286 -0.04285,-0.138963 0,-0.181818 0.04285,-0.04286 0.138963,0.04286 0.181818,0 0.04285,-0.04286 -0.04285,-0.138963 0,-0.181818 0.04285,-0.04286 0.138963,0.04286 0.181818,0 0.04285,-0.04286 -0.04285,-0.138964 0,-0.181819 0.04285,-0.04286 0.12761,0.0271 0.181818,0 0.449346,-0.224673 -0.06276,-0.181818 0.363636,-0.181818"
       id="path2852" />
    <path
       style="fill:none;stroke:#000000;stroke-width:1px;stroke-linecap:butt;stroke-linejoin:miter;stroke-opacity:1"
       d="m 45.090909,19.636364 c -0.242424,0.242424 -1.070112,0.727272 -0.727273,0.727272 1.48003,0 0.523368,-0.62532 1.090909,-0.909091 0.05421,-0.0271 0.121213,0 0.181819,0 0.06061,-0.06061 0.105157,-0.143487 0.181818,-0.181818 0.05421,-0.0271 0.138963,0.04285 0.181818,0 0.04286,-0.04285 -0.04286,-0.138963 0,-0.181818 0.08571,-0.08571 0.255221,0.05421 0.363636,0 0.153323,-0.07666 0.210314,-0.286975 0.363637,-0.363636 0.108415,-0.05421 0.277926,0.08571 0.363636,0 0.04285,-0.04285 -0.04286,-0.138963 0,-0.181818 0.08571,-0.08571 0.255221,0.05421 0.363636,0 0.07666,-0.03833 0.105157,-0.143488 0.181819,-0.181819 0.05421,-0.0271 0.138963,0.04285 0.181818,0 0.04286,-0.04285 -0.04286,-0.138963 0,-0.181818 0.08571,-0.08571 0.277926,0.08571 0.363636,0 0.04286,-0.04285 -0.04286,-0.138963 0,-0.181818 0.08571,-0.08571 0.277927,0.08571 0.363637,0 0.04286,-0.04285 -0.04285,-0.138963 0,-0.181818 0.04286,-0.04285 0.12761,0.0271 0.181818,0 0.07666,-0.03833 0.105157,-0.143488 0.181818,-0.181818 0.108415,-0.05421 0.255221,0.05421 0.363636,0 0.07666,-0.03833 0.105157,-0.143488 0.181818,-0.181819 0.05421,-0.0271 0.138964,0.04285 0.181819,0 0.04286,-0.04285 -0.04286,-0.138963 0,-0.181818 0.04286,-0.04285 0.12761,0.0271 0.181818,0 0.07666,-0.03833 0.105157,-0.143487 0.181818,-0.181818 0.05421,-0.0271 0.121212,0 0.181818,0 0.06061,-0.06061 0.105157,-0.143487 0.181818,-0.181818 0.05421,-0.0271 0.138964,0.04285 0.181819,0 0.04286,-0.04285 -0.04285,-0.138963 0,-0.181818 0.376188,-0.376189 -0.01471,0.574865 0.363636,-0.181818 0.0271,-0.05421 -0.04285,-0.138964 0,-0.181819 0.04286,-0.04285 0.12761,0.0271 0.181818,0 0.07666,-0.03833 0.105157,-0.143487 0.181818,-0.181818 0.05421,-0.0271 0.127611,0.0271 0.181818,0 0.07666,-0.03833 0.105157,-0.143487 0.181819,-0.181818 0.05421,-0.0271 0.138963,0.04285 0.181818,0 0.04286,-0.04285 -0.04286,-0.138963 0,-0.181818 0.04286,-0.04285 0.12761,0.0271 0.181818,0 0.218182,-0.109091 0.327273,-0.436364 0.545455,-0.545455 0.05421,-0.0271 0.138963,0.04285 0.181818,0 0.04286,-0.04285 -0.04285,-0.138963 0,-0.181818 0.04286,-0.04285 0.138963,0.04285 0.181818,0 0.04286,-0.04285 -0.04285,-0.138963 0,-0.181818 0.04286,-0.04285 0.12761,0.0271 0.181818,0 0.07666,-0.03833 0.121212,-0.121212 0.181818,-0.181818 0.06061,-0.06061 0.143488,-0.105157 0.181818,-0.181818 0.0271,-0.05421 -0.04286,-0.138964 0,-0.181819 0.04285,-0.04285 0.138964,0.04286 0.181819,0 0.04286,-0.04285 -0.04286,-0.138963 0,-0.181818 0.04286,-0.04285 0.12761,0.0271 0.181818,0 0.0842,-0.0421 0.620337,-0.620337 0.727273,-0.727273 0.06061,-0.06061 0.105156,-0.143487 0.181818,-0.181818 0.05421,-0.0271 0.138963,0.04285 0.181818,0 0.04286,-0.04285 -0.04285,-0.138963 0,-0.181818 0.04286,-0.04285 0.12761,0.0271 0.181818,0 0.218182,-0.109091 0.327273,-0.436364 0.545455,-0.545454 0.05421,-0.0271 0.138963,0.04285 0.181818,0 0.04286,-0.04286 -0.04286,-0.138964 0,-0.181819 0.04286,-0.04285 0.12761,0.0271 0.181818,0 0.218182,-0.109091 0.327273,-0.436363 0.545455,-0.545454 0.05421,-0.0271 0.12761,0.0271 0.181818,0 0.07666,-0.03833 0.105157,-0.143488 0.181818,-0.181818 0.05421,-0.0271 0.12761,0.0271 0.181818,0 0.153323,-0.07666 0.210314,-0.286975 0.363636,-0.363637 0.108416,-0.05421 0.255221,0.05421 0.363637,0 0.07666,-0.03833 0.105157,-0.143487 0.181818,-0.181818 0.05421,-0.0271 0.138963,0.04285 0.181818,0 0.376188,-0.376188 -0.574865,0.01471 0.181818,-0.363636 0.108416,-0.05421 0.255221,0.05421 0.363637,0 0.07666,-0.03833 0.105157,-0.143488 0.181818,-0.181818 0.05421,-0.0271 0.12761,0.0271 0.181818,0 0.07666,-0.03833 0.105157,-0.143488 0.181818,-0.181819 0.05421,-0.0271 0.138963,0.04286 0.181818,0 0.04285,-0.04285 -0.04286,-0.138963 0,-0.181818 0.04285,-0.04285 0.138964,0.04285 0.181819,0 0.04286,-0.04285 -0.04286,-0.138963 0,-0.181818 0.04286,-0.042855 0.12761,0.0271 0.181818,0 0.153322,-0.076661 0.210314,-0.2869751 0.363636,-0.3636364 0.05421,-0.027104 0.138963,0.042855 0.181818,0 0.04286,-0.042855 -0.0271,-0.1276104 0,-0.1818181 0.07666,-0.1533226 0.286975,-0.2103139 0.363637,-0.3636364 0.0271,-0.054208 -0.04285,-0.1389632 0,-0.1818182 0.484848,0 -0.06061,0.060606 0.181818,-0.1818182 0.04286,-0.042855 0.138963,0.042855 0.181818,0 0.04285,-0.042855 -0.0271,-0.1276104 0,-0.1818182 0.03833,-0.076661 0.143488,-0.1051569 0.181818,-0.1818181 0.0271,-0.054208 -0.04286,-0.1389633 0,-0.1818182 0.04285,-0.042855 0.138963,0.042855 0.181818,0 0.04285,-0.042855 -0.0271,-0.1276105 0,-0.1818182 0.03833,-0.076661 0.143488,-0.1051569 0.181819,-0.1818182 0.0271,-0.054208 -0.04286,-0.1389632 0,-0.1818182 0.04286,-0.042855 0.138963,0.042855 0.181818,0 0.04286,-0.042855 -0.0271,-0.1276104 0,-0.1818181 C 61.856512,7.3778845 61.961669,7.3493885 62,7.2727273 62.0271,7.2185193 61.95714,7.133764 62,7.0909091 c 0.04286,-0.042855 0.138963,0.042855 0.181818,0 0.04286,-0.042855 -0.04286,-0.1389632 0,-0.1818182 0.04286,-0.042855 0.138963,0.042855 0.181818,0 0.04286,-0.042855 -0.0271,-0.1276105 0,-0.1818182 0.03833,-0.076661 0.143488,-0.1051569 0.181819,-0.1818182 0.0271,-0.054208 -0.04285,-0.1389632 0,-0.1818181 0.04286,-0.042855 0.138963,0.042855 0.181818,0 0.04286,-0.042855 -0.0271,-0.1276105 0,-0.1818182 C 62.765603,6.1051569 62.87076,6.0766613 62.909091,6 c 0.0271,-0.054208 -0.04285,-0.1389632 0,-0.1818182 0.04286,-0.042855 0.12761,0.027104 0.181818,0 0.40201,-0.201005 0.05642,-0.1128442 0.181818,-0.3636363 0.378342,-0.7566838 -0.01255,0.1943701 0.363637,-0.1818182 0.04286,-0.042855 -0.0271,-0.1276105 0,-0.1818182 C 63.713025,4.9375865 63.923339,4.8805953 64,4.7272727 c 0.0271,-0.054208 -0.0271,-0.1276104 0,-0.1818182 0.03833,-0.076661 0.143488,-0.1051569 0.181818,-0.1818181 0.0271,-0.054208 -0.04286,-0.1389633 0,-0.1818182 0.04285,-0.042855 0.138963,0.042855 0.181818,0 0.09091,-0.090909 -0.09091,-0.4545455 0,-0.5454546 0.04286,-0.042855 0.138964,0.042855 0.181819,0 0.04286,-0.042855 0,-0.1212121 0,-0.1818181 0,-0.060606 0,-0.1212122 0,-0.1818182 0,-0.060606 0,-0.1212121 0,-0.1818182 0,-0.060606 -0.04286,-0.1389632 0,-0.1818182 0.242424,-0.2424242 0.181818,0.3030303 0.181818,-0.1818182"
       id="path2854" />
    <path
       style="fill:none;stroke:#000000;stroke-width:1px;stroke-linecap:butt;stroke-linejoin:miter;stroke-opacity:1"
       d="m 50.727273,22 c -0.06061,0.242424 -0.181818,0.977158 -0.181818,0.727273 0.06061,-0.303031 0.121212,-0.606061 0.181818,-0.909091 0.06061,0 0.138963,0.04285 0.181818,0 0.09091,-0.09091 -0.09091,-0.454546 0,-0.545455 0.04286,-0.04285 0.138963,0.04285 0.181818,0 0.08571,-0.08571 -0.08571,-0.277926 0,-0.363636 0.04285,-0.04285 0.138963,0.04285 0.181818,0 0.08571,-0.08571 -0.05421,-0.255221 0,-0.363636 0.03833,-0.07666 0.143488,-0.105157 0.181818,-0.181819 0.0271,-0.05421 -0.04286,-0.138963 0,-0.181818 0.04285,-0.04285 0.138964,0.04285 0.181819,0 0.04286,-0.04285 -0.04286,-0.138963 0,-0.181818 0.04286,-0.04285 0.138963,0.04285 0.181818,0 0.04286,-0.04285 -0.04286,-0.138963 0,-0.181818 0.04286,-0.04285 0.138963,0.04285 0.181818,0 0,-0.484849 -0.06061,0.06061 0.181818,-0.181818 0.04286,-0.04285 -0.04286,-0.138964 0,-0.181819 0.04286,-0.04285 0.138963,0.04285 0.181818,0 0.04286,-0.04285 -0.0271,-0.12761 0,-0.181818 0.04855,-0.09711 0.449734,-0.449733 0.545455,-0.545454 0.106935,-0.106936 0.643077,-0.685175 0.727273,-0.727273 0.05421,-0.0271 0.138963,0.04285 0.181818,0 C 54.19437,17.623812 53.243316,18.0147 54,17.636364 c 0.484848,0 -0.06061,0.06061 0.181818,-0.181819 0.04286,-0.04285 0.138963,0.04285 0.181818,0 0.04286,-0.04285 -0.04286,-0.138963 0,-0.181818 0.04286,-0.04285 0.138964,0.04285 0.181819,0 0.04286,-0.04285 -0.04285,-0.138963 0,-0.181818 0.04286,-0.04285 0.138963,0.04285 0.181818,0 0.04286,-0.04285 -0.04285,-0.138963 0,-0.181818 0.04286,-0.04285 0.138963,0.04285 0.181818,0 0.04286,-0.04285 -0.04285,-0.138963 0,-0.181818 0.04286,-0.04285 0.138963,0.04285 0.181818,0 0.04285,-0.04285 -0.04286,-0.138963 0,-0.181818 0.04285,-0.04285 0.138963,0.04285 0.181818,0 0.04285,-0.04285 -0.04286,-0.138964 0,-0.181819 0.04285,-0.04285 0.121212,0 0.181818,0 0,-0.06061 -0.0271,-0.12761 0,-0.181818 0.378342,-0.756684 -0.01255,0.19437 0.363637,-0.181818 0.04286,-0.04285 -0.04286,-0.138963 0,-0.181818 0.04286,-0.04285 0.138963,0.04285 0.181818,0 0.04286,-0.04285 -0.04286,-0.138963 0,-0.181818 0.04286,-0.04286 0.138963,0.04285 0.181818,0 0.04286,-0.04286 -0.04286,-0.138964 0,-0.181819 0.04286,-0.04285 0.138963,0.04286 0.181818,0 0.376189,-0.376188 -0.574865,0.01471 0.181819,-0.363636 0.484848,0 -0.06061,0.06061 0.181818,-0.181818 0.04286,-0.04285 0.138963,0.04285 0.181818,0 0.04286,-0.04285 -0.04285,-0.138963 0,-0.181818 0.04286,-0.04285 0.138963,0.04285 0.181818,0 0.04285,-0.04285 -0.04286,-0.138963 0,-0.181818 0.376188,-0.376189 -0.01471,0.574865 0.363636,-0.181819 0.0271,-0.05421 -0.04286,-0.138963 0,-0.181818 0.08571,-0.08571 0.277927,0.08571 0.363637,0 0.04286,-0.04285 -0.04286,-0.138963 0,-0.181818 0.04286,-0.04285 0.138963,0.04285 0.181818,0 0.04286,-0.04285 -0.04286,-0.138963 0,-0.181818 0.08571,-0.08571 0.277926,0.08571 0.363636,0 0.04286,-0.04285 -0.04286,-0.138963 0,-0.181818 0.08571,-0.08571 0.277927,0.08571 0.363637,0 0.04286,-0.04286 -0.04285,-0.138964 0,-0.181819 0.08571,-0.08571 0.277926,0.08571 0.363636,0 0.04285,-0.04285 -0.04286,-0.138963 0,-0.181818 0.08571,-0.08571 0.255221,0.05421 0.363636,0 0.603015,-0.603015 -0.171419,0.08571 0.363637,-0.181818 0.07666,-0.03833 0.105157,-0.143487 0.181818,-0.181818 0.05421,-0.0271 0.121212,0 0.181818,0 0.06061,-0.06061 0.105157,-0.143488 0.181818,-0.181818 0.05421,-0.0271 0.138964,0.04285 0.181819,0 0.04286,-0.04285 -0.04285,-0.138963 0,-0.181818 0.08571,-0.08571 0.277926,0.08571 0.363636,0 0.04286,-0.04286 -0.04285,-0.138964 0,-0.181819 0.04286,-0.04285 0.12761,0.0271 0.181818,0 0.07666,-0.03833 0.105157,-0.143487 0.181818,-0.181818 0.05421,-0.0271 0.138963,0.04285 0.181818,0 0.04285,-0.04285 -0.04286,-0.138963 0,-0.181818 0.09091,-0.09091 0.454546,0.09091 0.545455,0 0.04286,-0.04285 -0.04286,-0.138963 0,-0.181818 0.04286,-0.04285 0.138963,0.04285 0.181818,0 0.06061,-0.06061 -0.06061,-0.30303 0,-0.363637 0.08571,-0.08571 0.277927,0.08571 0.363637,0 0.04286,-0.04285 -0.04285,-0.138963 0,-0.181818 0.04286,-0.04285 0.138963,0.04285 0.181818,0 0.04286,-0.04285 -0.0271,-0.12761 0,-0.181818 0.03833,-0.07666 0.143487,-0.105157 0.181818,-0.181818 0.0271,-0.05421 -0.04285,-0.138963 0,-0.181818 0.04286,-0.04285 0.138963,0.04285 0.181818,0 0.04285,-0.04285 -0.0271,-0.127611 0,-0.181818 0.03833,-0.07666 0.143488,-0.105157 0.181818,-0.181819 0.0271,-0.05421 -0.04286,-0.138963 0,-0.181818 0.04285,-0.04285 0.138963,0.04285 0.181818,0 0.03717,-0.03717 -0.03604,-0.4733649 0,-0.5454544 0.03833,-0.076661 0.143488,-0.1051569 0.181819,-0.1818181 0.0271,-0.054208 -0.04286,-0.1389633 0,-0.1818182 0.04286,-0.042855 0.138963,0.042855 0.181818,0 0.04286,-0.042855 -0.04286,-0.1389633 0,-0.1818182 0.04286,-0.042855 0.138963,0.042855 0.181818,0 0.08571,-0.08571 -0.08571,-0.2779265 0,-0.3636364 0.04286,-0.042855 0.138963,0.042855 0.181818,0 0.04285,-0.042855 -0.04286,-0.1389632 0,-0.1818182 0.242424,-0.2424242 0.181818,0.3030303 0.181818,-0.1818181"
       id="path2856" />
    <path
       style="fill:none;stroke:#000000;stroke-width:1px;stroke-linecap:butt;stroke-linejoin:miter;stroke-opacity:1"
       d="m 49.272727,23.090909 c 0.727273,0 1.454546,0 2.181818,0 0.08188,0 0.490122,0.02767 0.545455,0 0.07666,-0.03833 0.105157,-0.143487 0.181818,-0.181818 0.04701,-0.02351 0.962036,0 1.090909,0 0.06061,0 0.127611,0.0271 0.181818,0 0.07666,-0.03833 0.105157,-0.143488 0.181819,-0.181818 0.07209,-0.03605 0.508284,0.03717 0.545454,0 0.04286,-0.04285 -0.04286,-0.138963 0,-0.181818 0.03717,-0.03717 0.473365,0.03604 0.545455,0 0.07666,-0.03833 0.105157,-0.143488 0.181818,-0.181819 0.108415,-0.05421 0.277926,0.08571 0.363636,0 0.04285,-0.04285 -0.04286,-0.138963 0,-0.181818 0.03717,-0.03717 0.473365,0.03605 0.545455,0 C 55.894843,22.143488 55.923339,22.038331 56,22 c 0.05421,-0.0271 0.12761,0.0271 0.181818,0 0.07666,-0.03833 0.105157,-0.143488 0.181818,-0.181818 0.05421,-0.0271 0.121212,0 0.181819,0 0.06061,-0.06061 0.105156,-0.143488 0.181818,-0.181818 0.05421,-0.0271 0.138963,0.04285 0.181818,0 0.04286,-0.04285 -0.04285,-0.138964 0,-0.181819 0.08571,-0.08571 0.277926,0.08571 0.363636,0 0.04285,-0.04285 -0.04286,-0.138963 0,-0.181818 0.08571,-0.08571 0.277927,0.08571 0.363637,0 0.04286,-0.04285 -0.04286,-0.138963 0,-0.181818 0.08571,-0.08571 0.277926,0.08571 0.363636,0 0.04286,-0.04285 -0.04286,-0.138963 0,-0.181818 0.08571,-0.08571 0.277926,0.08571 0.363636,0 0.04286,-0.04285 -0.04286,-0.138963 0,-0.181818 0.08571,-0.08571 0.255221,0.05421 0.363637,0 0.07666,-0.03833 0.105157,-0.143488 0.181818,-0.181818 0.108415,-0.05421 0.255221,0.05421 0.363636,0 0.07666,-0.03833 0.105157,-0.143488 0.181818,-0.181819 0.07209,-0.03604 0.508285,0.03717 0.545455,0 0.04286,-0.04285 -0.04286,-0.138963 0,-0.181818 0.04375,-0.04375 0.683522,0.04375 0.727273,0 0.04286,-0.04285 -0.04285,-0.138963 0,-0.181818 0.08571,-0.08571 0.277926,0.08571 0.363636,0 0.04285,-0.04285 -0.04286,-0.138963 0,-0.181818 0.08571,-0.08571 0.277927,0.08571 0.363636,0 0.04285,-0.04285 -0.04286,-0.138963 0,-0.181818 0.04285,-0.04285 0.138964,0.04285 0.181819,0 0.04286,-0.04285 -0.06061,-0.181819 0,-0.181819 0.06061,0 -0.06061,0.181819 0,0.181819 0.05863,0 0.262611,-0.313124 0.363636,-0.363637 0.05421,-0.0271 0.138963,0.04285 0.181818,0 0.04286,-0.04285 -0.04286,-0.138963 0,-0.181818 0.04286,-0.04285 0.121212,0 0.181818,0 0,-0.06061 -0.04286,-0.138963 0,-0.181818 0.08571,-0.08571 0.277927,0.08571 0.363637,0 0.04286,-0.04285 -0.04285,-0.138963 0,-0.181818 0.484848,0 -0.06061,0.06061 0.181818,-0.181818 0.04286,-0.04285 0.138963,0.04285 0.181818,0 0.04285,-0.04285 -0.04286,-0.138964 0,-0.181819 0.08571,-0.08571 0.277927,0.08571 0.363636,0 0.04285,-0.04285 -0.04286,-0.138963 0,-0.181818 0.484849,0 -0.06061,0.06061 0.181819,-0.181818 0.09091,-0.09091 0.454545,0.09091 0.545454,0 0.04285,-0.04285 0,-0.121212 0,-0.181818"
       id="path2858" />
    <path
       style="fill:none;stroke:#000000;stroke-width:1px;stroke-linecap:butt;stroke-linejoin:miter;stroke-opacity:1"
       d="m 51.090909,26.909091 c -0.242424,0.06061 -0.903968,0.358514 -0.727273,0.181818 0.230781,-0.230781 0.629228,-0.195718 0.909091,-0.363636 0.05197,-0.03118 -0.04286,-0.138963 0,-0.181818 0.08571,-0.08571 0.277927,0.08571 0.363637,0 0.04286,-0.04285 -0.04286,-0.138964 0,-0.181819 0.08571,-0.08571 0.277926,0.08571 0.363636,0 0.04286,-0.04285 -0.04286,-0.138963 0,-0.181818 0.08571,-0.08571 0.277926,0.08571 0.363636,0 0.04286,-0.04285 -0.04286,-0.138963 0,-0.181818 0.04286,-0.04285 0.127611,0.0271 0.181819,0 0.07666,-0.03833 0.105156,-0.143488 0.181818,-0.181818 0.05421,-0.0271 0.12761,0.0271 0.181818,0 0.07666,-0.03833 0.105157,-0.143488 0.181818,-0.181818 0.05421,-0.0271 0.127611,0.0271 0.181818,0 0.07666,-0.03833 0.105157,-0.143488 0.181818,-0.181819 0.108416,-0.05421 0.277927,0.08571 0.363637,0 0.04286,-0.04285 -0.04286,-0.138963 0,-0.181818 0.04286,-0.04285 0.138963,0.04285 0.181818,0 0.04286,-0.04285 -0.04286,-0.138963 0,-0.181818 0.08571,-0.08571 0.255221,0.05421 0.363636,0 0.07666,-0.03833 0.105157,-0.143487 0.181819,-0.181818 0.05421,-0.0271 0.12761,0.0271 0.181818,0 0.07666,-0.03833 0.105157,-0.143488 0.181818,-0.181818 0.108415,-0.05421 0.255221,0.05421 0.363636,0 0.07666,-0.03833 0.105157,-0.143488 0.181818,-0.181818 0.05421,-0.0271 0.127611,0.0271 0.181819,0 0.07666,-0.03833 0.105157,-0.143488 0.181818,-0.181819 0.05421,-0.0271 0.138963,0.04285 0.181818,0 0.04286,-0.04285 -0.04286,-0.138963 0,-0.181818 0.08571,-0.08571 0.277926,0.08571 0.363636,0 0.04286,-0.04285 -0.04286,-0.138963 0,-0.181818 0.04286,-0.04285 0.127611,0.0271 0.181819,0 0.07666,-0.03833 0.105156,-0.143488 0.181818,-0.181818 0.108415,-0.05421 0.255221,0.05421 0.363636,0 0.07666,-0.03833 0.105157,-0.143488 0.181818,-0.181818 0.05421,-0.0271 0.138963,0.04285 0.181818,0 0.04285,-0.04285 -0.04286,-0.138964 0,-0.181819 0.04285,-0.04285 0.127611,0.0271 0.181819,0 0.603015,-0.603015 -0.17142,0.08571 0.363636,-0.181818 0.07666,-0.03833 0.105157,-0.143487 0.181818,-0.181818 0.05421,-0.0271 0.138963,0.04285 0.181818,0 0.04286,-0.04285 -0.04286,-0.138963 0,-0.181818 0.04286,-0.04285 0.127611,0.0271 0.181819,0 0.07666,-0.03833 0.105156,-0.143488 0.181818,-0.181818 0.05421,-0.0271 0.12761,0.0271 0.181818,0 0.07666,-0.03833 0.105157,-0.143488 0.181818,-0.181818 0.05421,-0.0271 0.127611,0.0271 0.181818,0 0.07666,-0.03833 0.105157,-0.143488 0.181818,-0.181819 0.05421,-0.0271 0.138964,0.04285 0.181819,0 0.04286,-0.04285 -0.04286,-0.138963 0,-0.181818 0.04286,-0.04285 0.12761,0.0271 0.181818,0 C 59.894843,22.143488 59.923339,22.038331 60,22 c 0.05421,-0.0271 0.12761,0.0271 0.181818,0 0.07666,-0.03833 0.105157,-0.143488 0.181818,-0.181818 0.108416,-0.05421 0.277927,0.08571 0.363637,0 0.04286,-0.04285 -0.04285,-0.138963 0,-0.181818 0.04286,-0.04285 0.12761,0.0271 0.181818,0 0.07666,-0.03833 0.105157,-0.143488 0.181818,-0.181819 0.108416,-0.05421 0.277927,0.08571 0.363636,0 0.04285,-0.04285 -0.04286,-0.138963 0,-0.181818 0.04285,-0.04285 0.138964,0.04285 0.181819,0 0.04286,-0.04285 -0.04286,-0.138963 0,-0.181818 0.08571,-0.08571 0.255221,0.05421 0.363636,0 0.07666,-0.03833 0.105157,-0.143487 0.181818,-0.181818 0.05421,-0.0271 0.127611,0.0271 0.181818,0 0.07666,-0.03833 0.105157,-0.143488 0.181819,-0.181818 0.05421,-0.0271 0.138963,0.04285 0.181818,0 0.04286,-0.04285 -0.04285,-0.138963 0,-0.181818 0.04286,-0.04285 0.138963,0.04285 0.181818,0 0.376188,-0.376189 -0.574866,0.0147 0.181818,-0.363637 0.05421,-0.0271 0.138963,0.04285 0.181818,0 0.04285,-0.04285 -0.04286,-0.138963 0,-0.181818 0.04285,-0.04285 0.138963,0.04285 0.181818,0 0.04285,-0.04285 -0.04286,-0.138963 0,-0.181818 0.04285,-0.04285 0.138964,0.04285 0.181819,0 0.04286,-0.04285 -0.04286,-0.138963 0,-0.181818 0.04286,-0.04285 0.138963,0.04285 0.181818,0 0.04286,-0.04285 -0.0271,-0.127611 0,-0.181819 0.03833,-0.07666 0.143487,-0.105156 0.181818,-0.181818 0.0271,-0.05421 -0.04286,-0.138963 0,-0.181818 0.242424,-0.242424 0.181818,0.30303 0.181818,-0.181818"
       id="path2860" />
    <path
       style="fill:none;stroke:#000000;stroke-width:1px;stroke-linecap:butt;stroke-linejoin:miter;stroke-opacity:1"
       d="m 64,20.909091 c 0,-0.242424 0.17142,-0.898693 0,-0.727273 -0.218518,0.218518 -0.08409,0.615918 -0.181818,0.909091 -0.0271,0.08131 -0.143488,0.105157 -0.181818,0.181818 -0.05421,0.108416 0.08571,0.277927 0,0.363637 -0.04286,0.04285 -0.138964,-0.04285 -0.181819,0 -0.04286,0.04285 0.04285,0.138963 0,0.181818 -0.04286,0.04285 -0.138963,-0.04285 -0.181818,0 -0.08571,0.08571 0.08571,0.277926 0,0.363636 -0.04286,0.04285 -0.138963,-0.04285 -0.181818,0 -0.08571,0.08571 0.08571,0.277927 0,0.363637 -0.04286,0.04285 -0.138963,-0.04285 -0.181818,0 -0.08571,0.08571 0.08571,0.277926 0,0.363636 -0.04285,0.04285 -0.138963,-0.04285 -0.181818,0 -0.04285,0.04285 0.04286,0.138963 0,0.181818 -0.04285,0.04285 -0.138963,-0.04285 -0.181818,0 -0.04285,0.04285 0.04286,0.138963 0,0.181818 -0.04285,0.04285 -0.138964,-0.04285 -0.181819,0 -0.376188,0.376189 0.574866,-0.0147 -0.181818,0.363637 -0.05421,0.0271 -0.138963,-0.04285 -0.181818,0 -0.04286,0.04285 0.04286,0.138963 0,0.181818 C 61.623812,24.19437 62.0147,23.243316 61.636364,24 c 0,0.484848 0.06061,-0.06061 -0.181819,0.181818 -0.04286,0.04285 0.04285,0.138963 0,0.181818 -0.04286,0.04285 -0.12761,-0.0271 -0.181818,0 -0.153322,0.07666 -0.210314,0.286975 -0.363636,0.363637 -0.05421,0.0271 -0.121212,0 -0.181818,0 -0.06061,0.06061 -0.105157,0.143487 -0.181818,0.181818 -0.05421,0.0271 -0.138964,-0.04285 -0.181819,0 -0.04286,0.04285 0.04286,0.138963 0,0.181818 -0.04286,0.04285 -0.138963,-0.04285 -0.181818,0 -0.04286,0.04285 0.04286,0.138963 0,0.181818 -0.04286,0.04285 -0.12761,-0.0271 -0.181818,0 -0.07666,0.03833 -0.105157,0.143488 -0.181818,0.181818 -0.05421,0.0271 -0.138963,-0.04285 -0.181818,0 -0.04286,0.04285 0.04286,0.138964 0,0.181819 -0.04286,0.04285 -0.138964,-0.04285 -0.181819,0 -0.04286,0.04285 0.04285,0.138963 0,0.181818 -0.04286,0.04285 -0.12761,-0.0271 -0.181818,0 -0.153322,0.07666 -0.210314,0.286975 -0.363636,0.363636 -0.05421,0.0271 -0.138963,-0.04285 -0.181818,0 -0.04285,0.04285 0.04286,0.138963 0,0.181818 -0.04285,0.04285 -0.121212,0 -0.181818,0 0,0.06061 0.0271,0.127611 0,0.181819 -0.378342,0.756683 0.01255,-0.194371 -0.363637,0.181818 -0.04286,0.04285 0.04286,0.138963 0,0.181818 -0.04286,0.04285 -0.138963,-0.04285 -0.181818,0 -0.04286,0.04285 0.04286,0.138963 0,0.181818 -0.04286,0.04285 -0.138963,-0.04285 -0.181818,0 -0.04286,0.04285 0.04286,0.138963 0,0.181818 -0.04286,0.04285 -0.138963,-0.04285 -0.181818,0 -0.04286,0.04285 0.0271,0.127611 0,0.181818 -0.03833,0.07666 -0.143488,0.105157 -0.181819,0.181819 -0.0271,0.05421 0.04285,0.138963 0,0.181818 -0.04286,0.04285 -0.138963,-0.04285 -0.181818,0 -0.08571,0.08571 0.08571,0.277926 0,0.363636 -0.04286,0.04285 -0.138963,-0.04285 -0.181818,0 -0.09091,0.09091 0.09091,0.454546 0,0.545455 -0.04286,0.04285 -0.138963,-0.04285 -0.181818,0 -0.04285,0.04285 0.04286,0.138963 0,0.181818 -0.04285,0.04285 -0.138963,-0.04285 -0.181818,0 -0.06061,0.06061 0.06061,0.30303 0,0.363636 -0.04285,0.04285 -0.138963,-0.04285 -0.181818,0 -0.04285,0.04285 0.0271,0.127611 0,0.181818 -0.03833,0.07666 -0.143488,0.105157 -0.181819,0.181819 -0.0271,0.05421 0.04286,0.138963 0,0.181818 -0.04286,0.04285 -0.12761,-0.0271 -0.181818,0 -0.756684,0.378342 0.19437,-0.01255 -0.181818,0.363636 -0.04286,0.04285 -0.138963,-0.04285 -0.181818,0 -0.04286,0.04285 0.04286,0.138963 0,0.181818 -0.04286,0.04285 -0.138963,-0.04285 -0.181818,0 -0.06061,0.06061 0.06061,0.303031 0,0.363637 -0.04286,0.04285 -0.138964,-0.04285 -0.181819,0 -0.04286,0.04285 0.0271,0.12761 0,0.181818 -0.03833,0.07666 -0.143487,0.105157 -0.181818,0.181818 -0.05421,0.108416 0.08571,0.277927 0,0.363636 -0.04286,0.04285 -0.138963,-0.04285 -0.181818,0 -0.09091,0.09091 0.09091,0.454546 0,0.545455 -0.04286,0.04286 -0.138963,-0.04285 -0.181818,0 -0.03717,0.03717 0.03605,0.473365 0,0.545455 -0.03833,0.07666 -0.143488,0.105156 -0.181818,0.181818 -0.03288,0.06575 0,0.782629 0,0.909091 0,0.06061 0.04286,0.138963 0,0.181818 -0.242425,0.242424 -0.181818,-0.30303 -0.181818,0.181818 0,0.06061 0,0.121212 0,0.181818 0,0.06061 0.0271,0.127611 0,0.181818 -0.03833,0.07666 -0.143488,0.105157 -0.181819,0.181819 -0.03604,0.07209 0.03717,0.508284 0,0.545454 -0.04286,0.04285 -0.138963,-0.04286 -0.181818,0 -0.04286,0.04285 0,0.121212 0,0.181818 0,0.06061 0,0.121212 0,0.181818 0,0.0441 0.0058,0.539608 0,0.545455 -0.04286,0.04286 -0.138963,-0.04286 -0.181818,0 -0.08571,0.08571 0.08571,0.277926 0,0.363636 -0.04286,0.04286 -0.138963,-0.04286 -0.181818,0 -0.04286,0.04286 0.04286,0.138964 0,0.181819 -0.04286,0.04286 -0.138963,-0.04285 -0.181818,0 -0.04286,0.04286 0.04286,0.138963 0,0.181818 -0.06061,0.06061 -0.303031,-0.06061 -0.363637,0 -0.04286,0.04286 0.0271,0.12761 0,0.181818 -0.378342,0.756684 0.01255,-0.19437 -0.363636,0.181818 -0.242424,0.242424 0.30303,0.181818 -0.181818,0.181818"
       id="path2862" />
    <path
       style="fill:none;stroke:#000000;stroke-width:1px;stroke-linecap:butt;stroke-linejoin:miter;stroke-opacity:1"
       d="m 59.636364,27.272727 c -0.06061,-0.242424 -0.358514,-0.903968 -0.181819,-0.727272 0.230781,0.230781 0.195719,0.629227 0.363637,0.90909 0.03118,0.05197 0.138963,-0.04285 0.181818,0 0.04286,0.04285 -0.04286,0.138964 0,0.181819 0.04286,0.04285 0.138963,-0.04285 0.181818,0 0.04286,0.04285 -0.04286,0.138963 0,0.181818 0.04286,0.04285 0.138963,-0.04285 0.181818,0 0.04286,0.04285 -0.04286,0.138963 0,0.181818 0.04286,0.04285 0.127611,-0.0271 0.181819,0 0.218181,0.109091 0.327272,0.436364 0.545454,0.545455 0.05421,0.0271 0.138963,-0.04285 0.181818,0 0.04285,0.04285 -0.04286,0.138963 0,0.181818 0.04285,0.04285 0.138963,-0.04285 0.181818,0 0.04285,0.04285 -0.04286,0.138963 0,0.181818 0.04285,0.04285 0.138964,-0.04285 0.181819,0 0.04286,0.04285 -0.04286,0.138963 0,0.181818 0.04286,0.04285 0.12761,-0.0271 0.181818,0 0.07666,0.03833 0.105157,0.143488 0.181818,0.181818 0.05421,0.0271 0.12761,-0.0271 0.181818,0 0.07666,0.03833 0.105157,0.143488 0.181818,0.181818 0.05421,0.0271 0.138964,-0.04285 0.181819,0 0.04286,0.04285 -0.04285,0.138964 0,0.181819 0.04286,0.04285 0.138963,-0.04285 0.181818,0 0.04286,0.04285 -0.04285,0.138963 0,0.181818 0.04286,0.04285 0.138963,-0.04285 0.181818,0 0.04286,0.04285 -0.04285,0.138963 0,0.181818 0.04286,0.04285 0.12761,-0.0271 0.181818,0 0.07666,0.03833 0.105157,0.143488 0.181818,0.181818 0.05421,0.0271 0.138963,-0.04285 0.181818,0 0.04285,0.04285 -0.04286,0.138963 0,0.181818 0.04285,0.04285 0.127611,-0.0271 0.181819,0 0.07666,0.03833 0.105157,0.143488 0.181818,0.181819 0.05421,0.0271 0.138963,-0.04285 0.181818,0 0.04286,0.04285 -0.04286,0.138963 0,0.181818 0.04286,0.04285 0.12761,-0.0271 0.181818,0 0.153323,0.07666 0.210314,0.286975 0.363637,0.363636 0.05421,0.0271 0.138963,-0.04285 0.181818,0 0.04286,0.04285 -0.04286,0.138963 0,0.181818 0.04286,0.04285 0.138963,-0.04285 0.181818,0 0.04286,0.04285 -0.04286,0.138963 0,0.181818 0.04286,0.04285 0.12761,-0.0271 0.181818,0 0.07666,0.03833 0.105157,0.143488 0.181818,0.181819 0.242425,0.121212 0.181818,-0.181819 0.181818,0.181818"
       id="path2864" />
    <path
       style="fill:none;stroke:#000000;stroke-width:1px;stroke-linecap:butt;stroke-linejoin:miter;stroke-opacity:1"
       d="m 60.545455,27.818182 c 0.484848,0 -0.06061,-0.06061 0.181818,0.181818 0.09091,0.09091 0.454545,-0.09091 0.545454,0 0.04285,0.04285 -0.04286,0.138963 0,0.181818 0.376189,0.376188 -0.01471,-0.574865 0.363637,0.181818 0.0271,0.05421 -0.04286,0.138964 0,0.181819 0.04286,0.04285 0.12761,-0.0271 0.181818,0 0.07666,0.03833 0.105157,0.143487 0.181818,0.181818 0.05421,0.0271 0.138963,-0.04285 0.181818,0 0.04286,0.04285 -0.04286,0.138963 0,0.181818 0.04286,0.04285 0.138963,-0.04285 0.181818,0 0.04286,0.04285 -0.04286,0.138963 0,0.181818 0.04286,0.04285 0.138964,-0.04285 0.181819,0 0.04286,0.04285 -0.04285,0.138963 0,0.181818 0.04286,0.04285 0.138963,-0.04285 0.181818,0 0.04286,0.04285 -0.04285,0.138963 0,0.181818 0.04286,0.04285 0.138963,-0.04285 0.181818,0 0.04286,0.04285 -0.04285,0.138964 0,0.181819 0.04286,0.04285 0.138963,-0.04285 0.181818,0 0.04285,0.04285 -0.04286,0.138963 0,0.181818 0.04285,0.04285 0.138963,-0.04285 0.181818,0 0.04285,0.04285 -0.0271,0.12761 0,0.181818 0.03833,0.07666 0.121212,0.121212 0.181818,0.181818 0.06061,0.06061 0.121213,0.121212 0.181819,0.181818 0.106935,0.106936 0.643076,0.685175 0.727272,0.727273 0.05421,0.0271 0.138964,-0.04285 0.181819,0 0.04286,0.04285 -0.04733,0.143958 0,0.181818 0.275951,0.220762 0.659205,0.29557 0.90909,0.545455 2.252918,-0.483439 0.257975,0.803429 0.545455,1.090909 0.04286,0.04286 0.138963,-0.04285 0.181818,0 0.04285,0.04286 -0.0271,0.12761 0,0.181818 0.154054,0.308108 0.209582,0.05553 0.363637,0.363636 0.05421,0.108416 -0.08571,0.277927 0,0.363637 0.04286,0.04286 0.138963,-0.04286 0.181818,0 0.04286,0.04286 -0.0271,0.12761 0,0.181818 0.03833,0.07666 0.143487,0.105157 0.181818,0.181818 0.0271,0.05421 -0.01917,0.124322 0,0.181818 0.04286,0.128565 0.138963,0.235072 0.181818,0.363637 0.01917,0.0575 -0.0271,0.12761 0,0.181818 0.03833,0.07666 0.143488,0.105157 0.181818,0.181818 0.07273,0.145455 -0.07273,0.4 0,0.545455 0.03833,0.07666 0.143488,0.105157 0.181818,0.181818 0.05421,0.108415 -0.05421,0.255221 0,0.363636 0.03833,0.07666 0.143488,0.105157 0.181819,0.181818 0.07273,0.145455 -0.07273,0.4 0,0.545455 0.03833,0.07666 0.143487,0.105157 0.181818,0.181818 0.07273,0.145455 -0.07273,0.4 0,0.545455 0.416055,0.83211 -0.07536,-0.771531 0.363636,0.545454 0.03833,0.114992 -0.05421,0.255221 0,0.363637 0.03833,0.07666 0.143488,0.105156 0.181818,0.181818 0.07273,0.145454 -0.07273,0.4 0,0.545454 0.03833,0.07666 0.143488,0.105157 0.181819,0.181818 0.0552,0.110405 -0.0552,0.980505 0,1.09091 0.03833,0.07666 0.154714,0.100506 0.181818,0.181818 0.02772,0.08316 -0.04045,0.646367 0,0.727272 0.03833,0.07666 0.154714,0.100507 0.181818,0.181819 0.03833,0.114992 0,0.242424 0,0.363636 0,0.06061 -0.0271,0.12761 0,0.181818 0.03833,0.07666 0.143487,0.105157 0.181818,0.181818 0.0271,0.05421 -0.0271,0.127611 0,0.181819 0.03833,0.07666 0.143488,0.105156 0.181818,0.181818 0.04932,0.09863 -0.04975,0.677523 0,0.727272 0.04286,0.04285 0.138963,-0.04286 0.181818,0 0.04286,0.04285 0,0.121213 0,0.181819 0,0.06061 0,0.121212 0,0.181818 0,0.909091 0,1.818182 0,2.727273 0,0.363636 0,0.727272 0,1.090909 0,0.06061 0,0.121212 0,0.181818 0,0.06061 0.0271,0.12761 0,0.181818 -0.03833,0.07666 -0.143487,0.105157 -0.181818,0.181818 -0.04932,0.09863 0.04975,0.677523 0,0.727273 -0.04286,0.04286 -0.138963,-0.04285 -0.181818,0 -0.04286,0.04286 0,0.121212 0,0.181818 0,0.06677 -0.0073,0.719956 0,0.727273 0.04286,0.04286 0.138963,-0.04286 0.181818,0 0.04286,0.04286 0,0.121212 0,0.181818 0,0.06061 0,0.121212 0,0.181818 0,0.08188 0.02767,0.490121 0,0.545455 -0.03833,0.07666 -0.143487,0.105157 -0.181818,0.181818 -0.0271,0.05421 0,0.121212 0,0.181818 0,0.06061 0,0.121212 0,0.181818 0,0.303031 0,0.606061 0,0.909091 0,0.06061 0.0271,0.127611 0,0.181818 -0.03833,0.07666 -0.154714,0.100507 -0.181818,0.181819 -0.02772,0.08316 0.04045,0.646367 0,0.727272 -0.03833,0.07666 -0.143488,0.105157 -0.181818,0.181818 -0.03605,0.07209 0.03717,0.508285 0,0.545455 -0.04286,0.04286 -0.138963,-0.04286 -0.181818,0 -0.09091,0.09091 0.09091,0.454545 0,0.545455 -0.04286,0.04286 -0.138964,-0.04285 -0.181819,0 -0.08571,0.08571 0.08571,0.277926 0,0.363636 -0.04286,0.04286 -0.138963,-0.04285 -0.181818,0 -0.04286,0.04286 0.0271,0.12761 0,0.181818 -0.03833,0.07666 -0.143487,0.105157 -0.181818,0.181818 -0.0271,0.05421 0.0271,0.127611 0,0.181818 -0.03833,0.07666 -0.143488,0.105157 -0.181818,0.181819 -0.0271,0.05421 0,0.121212 0,0.181818 -0.06061,0.06061 -0.143488,0.105157 -0.181818,0.181818 -0.05421,0.108415 0.08571,0.277926 0,0.363636 -0.04286,0.04286 -0.138964,-0.04286 -0.181819,0 -0.04286,0.04286 0.04286,0.138964 0,0.181819 -0.04286,0.04286 -0.138963,-0.04285 -0.181818,0 -0.08571,0.08571 0.05421,0.25522 0,0.363636 -0.03833,0.07666 -0.143487,0.105157 -0.181818,0.181818 -0.05421,0.108416 0.08571,0.277927 0,0.363636 -0.04286,0.04285 -0.138963,-0.04286 -0.181818,0 -0.08571,0.08571 0.08571,0.277927 0,0.363637 -0.04286,0.04286 -0.138963,-0.04286 -0.181818,0 -0.04286,0.04286 0.0271,0.12761 0,0.181818 -0.03833,0.07666 -0.143488,0.105157 -0.181818,0.181818 -0.05421,0.108416 0.05421,0.255221 0,0.363637 -0.03833,0.07666 -0.143488,0.105156 -0.181819,0.181818 -0.0271,0.05421 0.04286,0.138963 0,0.181818 -0.04286,0.04286 -0.138963,-0.04285 -0.181818,0 -0.03717,0.03717 0.03604,0.473365 0,0.545454 -0.03833,0.07666 -0.143487,0.105157 -0.181818,0.181819 -0.0271,0.05421 0.0271,0.12761 0,0.181818 -0.03833,0.07666 -0.143488,0.105157 -0.181818,0.181818 -0.05421,0.108415 0.05421,0.255221 0,0.363636 -0.03833,0.07666 -0.143488,0.105157 -0.181818,0.181819 -0.05421,0.108415 0.05421,0.25522 0,0.363636 -0.03833,0.07666 -0.143488,0.105157 -0.181819,0.181818 -0.04615,0.09231 0.04615,0.271329 0,0.363636 -0.07666,0.153323 -0.286975,0.210314 -0.363636,0.363637 -0.05421,0.108415 0.08571,0.277926 0,0.363636 -0.04286,0.04286 -0.138963,-0.04286 -0.181818,0 -0.08571,0.08571 0.08571,0.277927 0,0.363637 -0.04286,0.04286 -0.138963,-0.04285 -0.181818,0 -0.04286,0.04286 0.0271,0.12761 0,0.181818 -0.03833,0.07666 -0.143488,0.105157 -0.181818,0.181818 -0.0271,0.05421 0.0271,0.12761 0,0.181818 -0.03833,0.07666 -0.121213,0.121212 -0.181819,0.181818 -0.06061,0.06061 -0.105157,0.143488 -0.181818,0.181818 -0.05421,0.0271 -0.138963,-0.04286 -0.181818,0 -0.04286,0.04285 0.04286,0.138964 0,0.181819 -0.04286,0.04286 -0.138963,-0.04286 -0.181818,0 -0.04286,0.04286 0.04286,0.138963 0,0.181818 -0.0603,0.0603 -0.303335,-0.0603 -0.363637,0 -0.04286,0.04286 0.04285,0.138963 0,0.181818 -0.04286,0.04286 -0.121212,0 -0.181818,0 -0.06061,0 -0.121212,0 -0.181818,0"
       id="path2866" />
  </g>
</svg>
