/* XPM */
static char * lock_delete_xpm[] = {
"16 16 170 2",
"  	c None",
". 	c #A3A3A3",
"+ 	c #A0A0A0",
"@ 	c #9D9D9D",
"# 	c #9A9A9A",
"$ 	c #979797",
"% 	c #949494",
"& 	c #A2A2A2",
"* 	c #BCBCBC",
"= 	c #CACACA",
"- 	c #CCCCCC",
"; 	c #C2C2C2",
"> 	c #ADADAD",
", 	c #8C8C8C",
"' 	c #A1A1A1",
") 	c #C4C4C4",
"! 	c #BEBEBE",
"~ 	c #969696",
"{ 	c #939393",
"] 	c #AEAEAE",
"^ 	c #848484",
"/ 	c #BABABA",
"( 	c #BFBFBF",
"_ 	c #989898",
": 	c #878787",
"< 	c #A8A8A8",
"[ 	c #9E9E9E",
"} 	c #898989",
"| 	c #A9A9A9",
"1 	c #797979",
"2 	c #999999",
"3 	c #C6C6C6",
"4 	c #7D7D7D",
"5 	c #ABABAB",
"6 	c #767676",
"7 	c #E1C361",
"8 	c #A8A088",
"9 	c #919191",
"0 	c #8E8E8E",
"a 	c #DCB95A",
"b 	c #DFB855",
"c 	c #DEB551",
"d 	c #DDB14D",
"e 	c #DCAD49",
"f 	c #D7A846",
"g 	c #787878",
"h 	c #8D7E65",
"i 	c #D89931",
"j 	c #E1C260",
"k 	c #FCF3C9",
"l 	c #FDF3CB",
"m 	c #FEF6D4",
"n 	c #FFF6D7",
"o 	c #FFF4D8",
"p 	c #FFF8E0",
"q 	c #FFF8DF",
"r 	c #FFF5DA",
"s 	c #FCF1CD",
"t 	c #FAEDC2",
"u 	c #FAEBBD",
"v 	c #D6932B",
"w 	c #E0BF5C",
"x 	c #FCF3C8",
"y 	c #F9DF75",
"z 	c #FDE689",
"A 	c #FFE795",
"B 	c #FFE59A",
"C 	c #FFEEAA",
"D 	c #FFEDA8",
"E 	c #FFE399",
"F 	c #F9D574",
"G 	c #F3CC59",
"H 	c #F1C84F",
"I 	c #FAE9BB",
"J 	c #D58D24",
"K 	c #DFBB58",
"L 	c #FCF1C7",
"M 	c #F9DC6F",
"N 	c #EDBB56",
"O 	c #EFBD61",
"P 	c #FFE79B",
"Q 	c #E2A635",
"R 	c #E1A44B",
"S 	c #FFE290",
"T 	c #D88535",
"U 	c #C45713",
"V 	c #BC4304",
"W 	c #C05818",
"X 	c #C76811",
"Y 	c #DEB753",
"Z 	c #FCF0C6",
"` 	c #F8D96A",
" .	c #FDE27C",
"..	c #FFE890",
"+.	c #FFE999",
"@.	c #DF9F32",
"#.	c #B28B54",
"$.	c #E3A158",
"%.	c #D27539",
"&.	c #F7B58D",
"*.	c #FED6B8",
"=.	c #F5A872",
"-.	c #CB6B2D",
";.	c #DDB24E",
">.	c #FBEFC3",
",.	c #F8D665",
"'.	c #ECB64C",
").	c #EFBD5A",
"!.	c #FFEB95",
"~.	c #DD9730",
"{.	c #AB824D",
"].	c #C25914",
"^.	c #F6B58D",
"/.	c #FF924D",
"(.	c #FF7711",
"_.	c #FF8621",
":.	c #EB8A40",
"<.	c #B94403",
"[.	c #FBEEC1",
"}.	c #F7D35F",
"|.	c #FCDB6C",
"1.	c #FFE57F",
"2.	c #FFED8F",
"3.	c #FFF297",
"4.	c #FFED93",
"5.	c #FECDAE",
"6.	c #FFFFFF",
"7.	c #EF7F18",
"8.	c #BC4204",
"9.	c #DBA843",
"0.	c #FBECBF",
"a.	c #F5CF59",
"b.	c #ECB041",
"c.	c #EFBA4E",
"d.	c #EFC25A",
"e.	c #EFC660",
"f.	c #EFC45C",
"g.	c #BF510B",
"h.	c #F49D63",
"i.	c #FF7F18",
"j.	c #F87600",
"k.	c #EE7600",
"l.	c #E16803",
"m.	c #B94503",
"n.	c #DAA33D",
"o.	c #FAEBBC",
"p.	c #FCEBBC",
"q.	c #FEEEBF",
"r.	c #FFF4C6",
"s.	c #FFF8CE",
"t.	c #FFFAD3",
"u.	c #FFF8D0",
"v.	c #E1A470",
"w.	c #CA6627",
"x.	c #E67721",
"y.	c #EA7905",
"z.	c #DD6401",
"A.	c #BD4D04",
"B.	c #D99D36",
"C.	c #D7942C",
"D.	c #D69028",
"E.	c #D58C23",
"F.	c #D4881E",
"G.	c #D3841A",
"H.	c #D28015",
"I.	c #D17C11",
"J.	c #CB6915",
"K.	c #BC4B04",
"L.	c #BB4A03",
"M.	c #C35A02",
"          . + @ # $ %           ",
"        & * = - = ; > ,         ",
"      ' ) ! ' ~ { $ ] ] ^       ",
"      / ( _         : < [       ",
"    @ ) '             } | 1     ",
"    2 3 %             4 5 6     ",
"  7 8 9 0 a b c d e f g 6 h i   ",
"  j k l m n o p q r s t u u v   ",
"  w x y z A B C D E F G H I J   ",
"  K L M N O P Q R S T U V W X   ",
"  Y Z `  ...+.@.#.$.%.&.*.=.-.  ",
"  ;.>.,.'.).!.~.{.].^./.(._.:.<.",
"  e [.}.|.1.2.3.4.V 5.6.6.6.7.8.",
"  9.0.a.b.c.d.e.f.g.h.i.j.k.l.m.",
"  n.o.p.q.r.s.t.u.v.w.x.y.z.A.  ",
"  B.i C.D.E.F.G.H.I.J.K.8.L.M.  "};
