/* XPM */
static char * lock_add_xpm[] = {
"16 16 163 2",
"  	c None",
". 	c #A3A3A3",
"+ 	c #A0A0A0",
"@ 	c #9D9D9D",
"# 	c #9A9A9A",
"$ 	c #979797",
"% 	c #949494",
"& 	c #A2A2A2",
"* 	c #BCBCBC",
"= 	c #CACACA",
"- 	c #CCCCCC",
"; 	c #C2C2C2",
"> 	c #ADADAD",
", 	c #8C8C8C",
"' 	c #A1A1A1",
") 	c #C4C4C4",
"! 	c #BEBEBE",
"~ 	c #969696",
"{ 	c #939393",
"] 	c #AEAEAE",
"^ 	c #848484",
"/ 	c #BABABA",
"( 	c #BFBFBF",
"_ 	c #989898",
": 	c #878787",
"< 	c #A8A8A8",
"[ 	c #9E9E9E",
"} 	c #898989",
"| 	c #A9A9A9",
"1 	c #797979",
"2 	c #999999",
"3 	c #C6C6C6",
"4 	c #7D7D7D",
"5 	c #ABABAB",
"6 	c #767676",
"7 	c #E1C361",
"8 	c #A8A088",
"9 	c #919191",
"0 	c #8E8E8E",
"a 	c #DCB95A",
"b 	c #DFB855",
"c 	c #DEB551",
"d 	c #DDB14D",
"e 	c #DCAD49",
"f 	c #D7A846",
"g 	c #787878",
"h 	c #8D7E65",
"i 	c #D89931",
"j 	c #E1C260",
"k 	c #FCF3C9",
"l 	c #FDF3CB",
"m 	c #FEF6D4",
"n 	c #FFF6D7",
"o 	c #FFF4D8",
"p 	c #FFF8E0",
"q 	c #FFF8DF",
"r 	c #FFF5DA",
"s 	c #FCF1CD",
"t 	c #FAEDC2",
"u 	c #FAEBBD",
"v 	c #D6932B",
"w 	c #E0BF5C",
"x 	c #FCF3C8",
"y 	c #F9DF75",
"z 	c #FDE689",
"A 	c #FFE795",
"B 	c #FFE59A",
"C 	c #FFEEAA",
"D 	c #FFEDA8",
"E 	c #FFE399",
"F 	c #F9D574",
"G 	c #F3CC59",
"H 	c #F1C84F",
"I 	c #FAE9BB",
"J 	c #D58D24",
"K 	c #DFBB58",
"L 	c #FCF1C7",
"M 	c #F9DC6F",
"N 	c #EDBB56",
"O 	c #EFBD61",
"P 	c #FFE79B",
"Q 	c #E2A635",
"R 	c #E1A44B",
"S 	c #FFE290",
"T 	c #AEA151",
"U 	c #749556",
"V 	c #668E4F",
"W 	c #618946",
"X 	c #908026",
"Y 	c #DEB753",
"Z 	c #FCF0C6",
"` 	c #F8D96A",
" .	c #FDE27C",
"..	c #FFE890",
"+.	c #FFE999",
"@.	c #DF9F32",
"#.	c #B28B54",
"$.	c #B3B86D",
"%.	c #81AB61",
"&.	c #B4D495",
"*.	c #D0E6BA",
"=.	c #8FBB6A",
"-.	c #578F2D",
";.	c #376B19",
">.	c #DDB24E",
",.	c #FBEFC3",
"'.	c #F8D665",
").	c #ECB64C",
"!.	c #EFBD5A",
"~.	c #FFEB95",
"{.	c #DD9730",
"].	c #AB824D",
"^.	c #628A46",
"/.	c #B1D390",
"(.	c #B1D692",
"_.	c #FFFFFF",
":.	c #8CBC65",
"<.	c #8FBC67",
"[.	c #FBEEC1",
"}.	c #F7D35F",
"|.	c #FCDB6C",
"1.	c #FFE57F",
"2.	c #FFED8F",
"3.	c #FFF297",
"4.	c #FFED93",
"5.	c #4C7B31",
"6.	c #B6D49C",
"7.	c #B2D295",
"8.	c #DBA843",
"9.	c #FBECBF",
"0.	c #F5CF59",
"a.	c #ECB041",
"b.	c #EFBA4E",
"c.	c #EFC25A",
"d.	c #EFC660",
"e.	c #EFC45C",
"f.	c #3F6E1D",
"g.	c #8BBA62",
"h.	c #87BA60",
"i.	c #87B960",
"j.	c #DAA33D",
"k.	c #FAEBBC",
"l.	c #FCEBBC",
"m.	c #FEEEBF",
"n.	c #FFF4C6",
"o.	c #FFF8CE",
"p.	c #FFFAD3",
"q.	c #FFF8D0",
"r.	c #97AC6D",
"s.	c #538C28",
"t.	c #8DBA64",
"u.	c #D99D36",
"v.	c #D7942C",
"w.	c #D69028",
"x.	c #D58C23",
"y.	c #D4881E",
"z.	c #D3841A",
"A.	c #D28015",
"B.	c #D17C11",
"C.	c #7F7214",
"D.	c #3F6C18",
"E.	c #3F6B18",
"F.	c #7D6C0E",
"          . + @ # $ %           ",
"        & * = - = ; > ,         ",
"      ' ) ! ' ~ { $ ] ] ^       ",
"      / ( _         : < [       ",
"    @ ) '             } | 1     ",
"    2 3 %             4 5 6     ",
"  7 8 9 0 a b c d e f g 6 h i   ",
"  j k l m n o p q r s t u u v   ",
"  w x y z A B C D E F G H I J   ",
"  K L M N O P Q R S T U V W X   ",
"  Y Z `  ...+.@.#.$.%.&.*.=.-.;.",
"  >.,.'.).!.~.{.].^./.(._.:.<.;.",
"  e [.}.|.1.2.3.4.5.6._._._.7.;.",
"  8.9.0.a.b.c.d.e.f.g.h._.i.<.;.",
"  j.k.l.m.n.o.p.q.r.s.t.7.t.s.;.",
"  u.i v.w.x.y.z.A.B.C.D.;.E.F.  "};
