/* XPM */
static char * lock_edit_xpm[] = {
"16 16 181 2",
"  	c None",
". 	c #A3A3A3",
"+ 	c #A0A0A0",
"@ 	c #9D9D9D",
"# 	c #9A9A9A",
"$ 	c #979797",
"% 	c #949494",
"& 	c #A2A2A2",
"* 	c #BCBCBC",
"= 	c #CACACA",
"- 	c #CCCCCC",
"; 	c #C2C2C2",
"> 	c #ADADAD",
", 	c #8C8C8C",
"' 	c #A1A1A1",
") 	c #C4C4C4",
"! 	c #BEBEBE",
"~ 	c #969696",
"{ 	c #939393",
"] 	c #AEAEAE",
"^ 	c #848484",
"/ 	c #BABABA",
"( 	c #BFBFBF",
"_ 	c #989898",
": 	c #878787",
"< 	c #A8A8A8",
"[ 	c #B3A47B",
"} 	c #D8A558",
"| 	c #DBB185",
"1 	c #D09D46",
"2 	c #A99964",
"3 	c #E7BE77",
"4 	c #F0D2B4",
"5 	c #FFF3E5",
"6 	c #EFD2AC",
"7 	c #C78C48",
"8 	c #999999",
"9 	c #C6C6C6",
"0 	c #EBD37E",
"a 	c #F9E3B2",
"b 	c #E7C08B",
"c 	c #F6D3AE",
"d 	c #FCE0C4",
"e 	c #D39F66",
"f 	c #E1C361",
"g 	c #A8A088",
"h 	c #919191",
"i 	c #8E8E8E",
"j 	c #DCB95A",
"k 	c #DFB855",
"l 	c #DEB551",
"m 	c #DDB14D",
"n 	c #DEB03F",
"o 	c #EED47C",
"p 	c #FDF6C4",
"q 	c #F6DD6C",
"r 	c #EDCA6D",
"s 	c #D7A363",
"t 	c #D29B5D",
"u 	c #E1C260",
"v 	c #FCF3C9",
"w 	c #FDF3CB",
"x 	c #FEF6D4",
"y 	c #FFF6D7",
"z 	c #FFF4D8",
"A 	c #FFF8E0",
"B 	c #F5E3A9",
"C 	c #EED379",
"D 	c #FDF7C7",
"E 	c #F5DC5F",
"F 	c #F7E25B",
"G 	c #F2D67A",
"H 	c #DE983E",
"I 	c #E0BF5C",
"J 	c #FCF3C8",
"K 	c #F9DF75",
"L 	c #FDE689",
"M 	c #FFE795",
"N 	c #FFE59A",
"O 	c #E7CA79",
"P 	c #E7CB77",
"Q 	c #F5DC5E",
"R 	c #F7E15A",
"S 	c #F1D47B",
"T 	c #DE9948",
"U 	c #D68D28",
"V 	c #DFBB58",
"W 	c #FCF1C7",
"X 	c #F9DC6F",
"Y 	c #EDBB56",
"Z 	c #EFBD61",
"` 	c #E7C671",
" .	c #D6B872",
"..	c #FDF6C2",
"+.	c #F7DF63",
"@.	c #F8E25D",
"#.	c #F0D379",
"$.	c #DC9743",
"%.	c #F5DCA8",
"&.	c #D4881E",
"*.	c #DEB753",
"=.	c #FCF0C6",
"-.	c #F8D96A",
";.	c #FDE27C",
">.	c #D9B763",
",.	c #D5B67A",
"'.	c #D1B790",
").	c #E4C955",
"!.	c #F5DF5B",
"~.	c #EDD078",
"{.	c #DC9842",
"].	c #EDBA44",
"^.	c #F9E7B6",
"/.	c #D38318",
"(.	c #DDB24E",
"_.	c #FBEFC3",
":.	c #F8D665",
"<.	c #ECB64C",
"[.	c #AA8943",
"}.	c #FFF2E0",
"|.	c #D89A54",
"1.	c #BE7A1A",
"2.	c #C59849",
"3.	c #C58635",
"4.	c #DE9B33",
"5.	c #EFBE42",
"6.	c #F9E5B4",
"7.	c #D27E13",
"8.	c #DCAD49",
"9.	c #FBEEC1",
"0.	c #F7D35F",
"a.	c #FCDB6C",
"b.	c #85672C",
"c.	c #F9C794",
"d.	c #F9C991",
"e.	c #C98541",
"f.	c #AE6A21",
"g.	c #ECBD53",
"h.	c #EFBE46",
"i.	c #EEBA3C",
"j.	c #F9E3B3",
"k.	c #D1790E",
"l.	c #DBA843",
"m.	c #FBECBF",
"n.	c #F5CF59",
"o.	c #ECB041",
"p.	c #5A4113",
"q.	c #896129",
"r.	c #BE8949",
"s.	c #C89A48",
"t.	c #E7AE48",
"u.	c #E6A537",
"v.	c #E19A2A",
"w.	c #EEB838",
"x.	c #F8E3B1",
"y.	c #D07509",
"z.	c #DAA33D",
"A.	c #FAEBBC",
"B.	c #FCEBBC",
"C.	c #FEEEBF",
"D.	c #FFF4C6",
"E.	c #FFF8CE",
"F.	c #FFFAD3",
"G.	c #FFF8D0",
"H.	c #FFF2C7",
"I.	c #FCE9BA",
"J.	c #F9E4B3",
"K.	c #F8E2B0",
"L.	c #CF7105",
"M.	c #D99D36",
"N.	c #D89931",
"O.	c #D7942C",
"P.	c #D69028",
"Q.	c #D58C23",
"R.	c #D3841A",
"S.	c #D28015",
"T.	c #D17C11",
"U.	c #D0760A",
"V.	c #CF7307",
"W.	c #CF7004",
"X.	c #CE6E01",
"        . + @ # $ %             ",
"      & * = - = ; > ,           ",
"    ' ) ! ' ~ { $ ] ] ^         ",
"    / ( _         : < [ } | 1   ",
"  @ ) '             2 3 4 5 6 7 ",
"  8 9 %             0 a b c d e ",
"f g h i j k l m n o p q r s t   ",
"u v w x y z A B C D E F G H     ",
"I J K L M N O P D Q R S T U     ",
"V W X Y Z `  ...+.@.#.$.%.&.    ",
"*.=.-.;.>.,.'.).!.~.{.].^./.    ",
"(._.:.<.[.}.|.1.2.3.4.5.6.7.    ",
"8.9.0.a.b.c.d.e.f.g.h.i.j.k.    ",
"l.m.n.o.p.q.r.s.t.u.v.w.x.y.    ",
"z.A.B.C.D.E.F.G.H.I.J.K.K.L.    ",
"M.N.O.P.Q.&.R.S.T.k.U.V.W.X.    "};
